SplineFontDB: 3.0
FontName: NinaImprovedMedium
FullName: Nina Improved Medium
FamilyName: Nina Improved
Weight: Medium
Copyright: 2016 James Dearing. CC BY-SA.
UComments: "See https://github.com/TheOpenSourceNinja/Nina-Improved for source code, readme, copyright." 
FontLog: "See https://github.com/TheOpenSourceNinja/Nina-Improved for source code, readme, copyright." 
Version: 
ItalicAngle: 0
UnderlinePosition: -123
UnderlineWidth: 20
Ascent: 800
Descent: 200
sfntRevision: 0x00010000
LayerCount: 2
Layer: 0 1 "Back"  1
Layer: 1 1 "Fore"  0
XUID: [1021 299 701438109 5689514]
FSType: 0
OS2Version: 0
OS2_WeightWidthSlopeOnly: 0
OS2_UseTypoMetrics: 1
CreationTime: 919545717
ModificationTime: 1474550484
PfmFamily: 65
TTFWeight: 500
TTFWidth: 5
LineGap: 0
VLineGap: 0
Panose: 3 0 6 0 0 0 0 0 0 0
OS2TypoAscent: 936
OS2TypoAOffset: 0
OS2TypoDescent: -200
OS2TypoDOffset: 0
OS2TypoLinegap: 0
OS2WinAscent: 936
OS2WinAOffset: 0
OS2WinDescent: 190
OS2WinDOffset: 0
HheadAscent: 936
HheadAOffset: 0
HheadDescent: -200
HheadDOffset: 0
OS2SubXSize: 700
OS2SubYSize: 650
OS2SubXOff: 0
OS2SubYOff: 143
OS2SupXSize: 700
OS2SupYSize: 650
OS2SupXOff: 0
OS2SupYOff: 453
OS2StrikeYSize: 50
OS2StrikeYPos: 259
OS2FamilyClass: 2575
OS2Vendor: 'Alts'
MarkAttachClasses: 1
DEI: 91125
TtTable: prep
NPUSHB
 9
 7
 7
 2
 2
 1
 1
 0
 0
 1
SCANTYPE
PUSHW_1
 511
SCANCTRL
RCVT
ROUND[Grey]
WCVTP
RCVT
ROUND[Grey]
WCVTP
RCVT
ROUND[Grey]
WCVTP
RCVT
ROUND[Grey]
WCVTP
PUSHB_4
 4
 3
 70
 0
CALL
PUSHB_4
 6
 5
 70
 0
CALL
PUSHB_2
 3
 3
RCVT
ROUND[Grey]
WCVTP
PUSHB_2
 5
 5
RCVT
ROUND[Grey]
WCVTP
EndTTInstrs
TtTable: fpgm
NPUSHB
 1
 0
FDEF
SROUND
RCVT
DUP
PUSHB_1
 3
CINDEX
RCVT
SWAP
SUB
ROUND[Grey]
RTG
SWAP
ROUND[Grey]
ADD
WCVTP
ENDF
EndTTInstrs
ShortTable: cvt  8
  -38
  810
  856
  100
  114
  101
  88
  94
EndShort
ShortTable: maxp 16
  1
  0
  86
  104
  4
  0
  0
  2
  8
  64
  10
  0
  64
  120
  1
  1
EndShort
LangName: 1033 
Encoding: UnicodeBmp
UnicodeInterp: none
NameList: Adobe Glyph List
DisplaySize: -24

StartChar: exclam
Encoding: 33 33 1
Width: 504
Flags: W
HStem: -41 109<35 123.996> 788 20G<425.5 458.5> 788 20G<425.5 458.5>
VStem: 35 109<-35.741 7.5929>
LayerCount: 2
Fore
SplineSet
504 748 m 0,0,1
 504 734 504 734 449 662 c 0,2,3
 372 559 372 559 366 550 c 0,4,5
 349 526 349 526 302 427 c 0,6,7
 252 323 252 323 225 278 c 0,8,9
 180 206 180 206 150 206 c 0,10,11
 137 206 137 206 126 219 c 1,12,13
 123 220 123 220 123 228 c 0,14,15
 123 268 123 268 188.5 414.5 c 128,-1,16
 254 561 254 561 325 675 c 0,17,18
 407 808 407 808 444 808 c 0,19,20
 473 808 473 808 490 785 c 0,21,22
 504 767 504 767 504 748 c 0,0,1
144 8 m 0,23,24
 144 -31 144 -31 110 -41 c 1,25,-1
 35 -41 l 1,26,27
 35 -38 35 -38 29.5 -21.5 c 128,-1,28
 24 -5 24 -5 24 8 c 0,29,30
 24 68 24 68 79 68 c 0,31,32
 104 68 104 68 124 46.5 c 128,-1,33
 144 25 144 25 144 8 c 0,23,24
EndSplineSet
Validated: 1
EndChar

StartChar: quotedbl
Encoding: 34 34 2
Width: 446
Flags: W
HStem: 863 28G<157 194 400.5 412.5>
LayerCount: 2
Fore
SplineSet
453 826 m 0,0,1
 453 783 453 783 362.5 669.5 c 128,-1,2
 272 556 272 556 236 551 c 1,3,4
 213 570 213 570 213 596 c 0,5,6
 213 629 213 629 286 749 c 128,-1,7
 359 869 359 869 393 881 c 0,8,9
 398 883 398 883 403 883 c 0,10,11
 422 883 422 883 439 859 c 0,12,13
 453 839 453 839 453 826 c 0,0,1
233 846 m 1,14,15
 183 763 183 763 153 686 c 0,16,17
 126 614 126 614 118 603 c 0,18,19
 99 574 99 574 47 551 c 1,20,21
 24 572 24 572 22 574 c 0,22,23
 13 584 13 584 13 601 c 0,24,25
 13 624 13 624 71 749 c 0,26,27
 136 891 136 891 178 891 c 0,28,29
 210 891 210 891 216 884 c 1,30,31
 225 865 225 865 233 846 c 1,14,15
EndSplineSet
Validated: 1
EndChar

StartChar: dollar
Encoding: 36 36 3
Width: 710
Flags: W
HStem: 184 113<69.5586 161.499> 397 112<158.973 290.659>
VStem: 255 114<809.707 902.457> 275 71<739.082 881.156> 298 81<229.005 384> 309 68<-60.0596 117.752>
LayerCount: 2
Fore
SplineSet
668 268 m 0,0,1
 668 197 668 197 544 153 c 0,2,3
 452 121 452 121 377 121 c 1,4,5
 377 117 377 117 377 112 c 0,6,7
 377 90 377 90 383 45 c 0,8,9
 391 -14 391 -14 391 -20 c 2,10,-1
 387 -80 l 1,11,12
 346 -106 346 -106 330 -106 c 0,13,14
 304 -106 304 -106 283 -73 c 1,15,16
 309 -3 309 -3 309 46 c 0,17,18
 309 125 309 125 238 155 c 0,19,20
 223 162 223 162 107 184 c 0,21,22
 36 198 36 198 36 236 c 0,23,24
 36 245 36 245 39 255 c 1,25,26
 45 257 45 257 74 279 c 0,27,28
 98 297 98 297 112 297 c 0,29,30
 124 297 124 297 186 262.5 c 128,-1,31
 248 228 248 228 260 228 c 2,32,-1
 295 228 l 1,33,34
 299 249 299 249 299 279 c 0,35,36
 299 294 299 294 298 311 c 0,37,38
 294 390 294 390 294 397 c 1,39,40
 224 408 224 408 155 419 c 1,41,42
 39 447 39 447 39 523 c 0,43,44
 39 588 39 588 136 666 c 0,45,46
 217 730 217 730 275 746 c 1,47,48
 275 748 275 748 265 763.5 c 128,-1,49
 255 779 255 779 255 793 c 2,50,-1
 255 884 l 1,51,52
 275 911 275 911 314 911 c 0,53,54
 347 911 347 911 369 885 c 1,55,56
 346 829 346 829 346 793 c 0,57,58
 346 740 346 740 399 718 c 1,59,60
 448 702 448 702 497 685 c 1,61,62
 550 662 550 662 550 608 c 0,63,64
 550 598 550 598 548 586 c 0,65,66
 543 551 543 551 503 544 c 1,67,68
 473 549 473 549 439 579 c 0,69,70
 400 612 400 612 373 621 c 1,71,72
 363 611 363 611 363 578 c 0,73,74
 363 551 363 551 369 518 c 0,75,76
 374 489 374 489 377 488 c 0,77,78
 450 478 450 478 551 413 c 0,79,80
 668 337 668 337 668 268 c 0,0,1
292 513 m 1,81,-1
 282 624 l 1,82,83
 276 625 276 625 270 625 c 0,84,85
 227 625 227 625 192 594 c 0,86,87
 176 579 176 579 146 537 c 1,88,89
 156 527 156 527 159 513 c 1,90,91
 158 513 158 513 176 511.5 c 128,-1,92
 194 510 194 510 216 509 c 1,93,94
 249 509 249 509 292 513 c 1,81,-1
547 250 m 1,95,96
 548 257 548 257 548 263 c 0,97,98
 548 310 548 310 490 345 c 0,99,100
 443 373 443 373 382 384 c 1,101,102
 379 323 379 323 379 283 c 0,103,104
 379 255 379 255 381 236.5 c 128,-1,105
 383 218 383 218 383 220 c 1,106,107
 428 224 428 224 474 228 c 0,108,109
 525 233 525 233 547 250 c 1,95,96
EndSplineSet
Validated: 1
EndChar

StartChar: percent
Encoding: 37 37 4
Width: 863
Flags: W
HStem: -19 100<544.101 642.327> 291 90<628.029 717.842> 301 82<642.799 741.277> 351 91<120 176.548> 624 67<305.818 502.586> 631 120<132.473 198>
VStem: 18 70<460.129 580.743> 222 64<22.8423 69.7046 584.307 619.872> 228 71<497.995 621.422> 448 90<87.1245 198.281> 753 78<182.961 294.454> 753 65<183.278 262.968>
LayerCount: 2
Fore
SplineSet
818 195 m 5,0,1
 818 143 818 143 734 62 c 132,-1,2
 650 -19 650 -19 593 -19 c 4,3,4
 538 -19 538 -19 496 14 c 5,5,6
 448 50 448 50 448 106 c 4,7,8
 448 173 448 173 505 268 c 4,9,10
 572 381 572 381 653 381 c 4,11,12
 656 381 656 381 670.5 382 c 132,-1,13
 685 383 685 383 696 383 c 4,14,15
 790 383 790 383 818 319 c 5,16,17
 831 295 831 295 831 264 c 4,18,19
 831 231 831 231 818 195 c 5,0,1
239 115 m 4,20,-1
 239 115 l 4,21,-1
 239 115 l 4,22,23
 239 130 239 130 395 370 c 5,24,25
 566 637 566 637 568 641 c 5,26,27
 511 624 511 624 431 624 c 4,28,29
 362 624 362 624 332 631 c 4,30,31
 293 640 293 640 289 644 c 5,32,33
 299 625 299 625 299 583 c 4,34,35
 299 498 299 498 262 434 c 5,36,37
 216 351 216 351 128 351 c 4,38,39
 68 351 68 351 38 424 c 4,40,41
 18 472 18 472 18 521 c 4,42,43
 18 606 18 606 72 678.5 c 132,-1,44
 126 751 126 751 198 751 c 5,45,-1
 198 751 l 4,46,47
 198 750 198 750 281 721 c 4,48,49
 367 691 367 691 408 691 c 4,50,51
 437 691 437 691 547 726 c 4,52,-1
 649 760 l 4,53,-1
 654 760 l 6,54,-1
 707 760 l 5,55,56
 707 757 707 757 712.5 746 c 132,-1,57
 718 735 718 735 718 721 c 4,58,59
 718 705 718 705 510 394 c 4,60,61
 298 77 298 77 286 22 c 5,62,-1
 239 22 l 5,63,64
 225 45 225 45 225 60 c 4,65,66
 225 61 225 61 225 63 c 4,67,68
 225 87 225 87 239 115 c 4,20,-1
751 253 m 4,69,70
 737 301 737 301 718 301 c 4,71,72
 713 301 713 301 702 296 c 132,-1,73
 691 291 691 291 684 291 c 4,74,75
 644 291 644 291 593 241 c 4,76,77
 538 187 538 187 538 131 c 4,78,79
 538 81 538 81 588 81 c 4,80,81
 621 81 621 81 685 134 c 5,82,83
 753 192 753 192 753 239 c 4,84,85
 753 246 753 246 751 253 c 4,69,70
228 571 m 4,86,87
 228 585 228 585 222.5 600.5 c 132,-1,88
 217 616 217 616 217 620 c 5,89,90
 213 620 213 620 202.5 625.5 c 132,-1,91
 192 631 192 631 178 631 c 4,92,93
 143 631 143 631 115.5 590 c 132,-1,94
 88 549 88 549 88 506 c 4,95,96
 88 493 88 493 104 469 c 132,-1,97
 120 445 120 445 120 442 c 5,98,99
 174 446 174 446 205 495 c 4,100,101
 228 533 228 533 228 571 c 4,86,87
EndSplineSet
Validated: 8388609
EndChar

StartChar: quotesingle
Encoding: 39 39 5
Width: 291
Flags: W
VStem: 33 197
LayerCount: 2
Fore
SplineSet
230 865 m 0,0,1
 231 860 231 860 231 857 c 0,2,3
 226 803 226 803 168 695 c 0,4,5
 98 567 98 567 64 557 c 1,6,7
 55 562 55 562 51 566 c 0,8,9
 33 583 33 583 33 597 c 0,10,11
 33 600 33 600 33 604 c 0,12,13
 33 606 33 606 33 609 c 0,14,15
 33 643 33 643 78 758 c 0,16,17
 130 891 130 891 161 909 c 0,18,19
 168 912 168 912 176 912 c 0,20,21
 194 912 194 912 211 894 c 0,22,23
 227 877 227 877 230 865 c 0,0,1
EndSplineSet
Validated: 1
EndChar

StartChar: parenleft
Encoding: 40 40 6
Width: 328
Flags: W
HStem: 858 20G<205 244>
VStem: 31 98<270.594 553.057>
LayerCount: 2
Fore
SplineSet
305 -43 m 1,0,1
 305 -102 305 -102 251 -102 c 0,2,3
 155 -102 155 -102 87 116 c 0,4,5
 31 295 31 295 31 447 c 0,6,7
 31 450 31 450 31 452 c 0,8,9
 31 479 31 479 60 580 c 0,10,11
 94 698 94 698 132 776 c 0,12,13
 183 878 183 878 227 878 c 0,14,15
 261 878 261 878 269 873 c 0,16,17
 282 865 282 865 285 834 c 1,18,19
 217 735 217 735 173 625 c 1,20,21
 129 511 129 511 129 427 c 0,22,23
 129 316 129 316 174 197 c 1,24,25
 206 116 206 116 259 30 c 0,26,27
 305 -43 l 1,0,1
EndSplineSet
Validated: 1
EndChar

StartChar: parenright
Encoding: 41 41 7
Width: 318
Flags: W
VStem: 182 108<253.831 580.227>
LayerCount: 2
Fore
SplineSet
290 476 m 0,0,1
 290 469 290 469 290 462 c 0,2,3
 290 280 290 280 241 118 c 0,4,5
 183 -73 183 -73 94 -73 c 0,6,7
 56 -73 56 -73 45 -19 c 0,8,9
 44 -17 44 -17 44 -14 c 0,10,11
 44 9 44 9 79 65 c 1,12,13
 134 150 134 150 155 205 c 0,14,15
 189 293 189 293 189 388 c 0,16,17
 189 405 189 405 188 421 c 0,18,19
 182 526 182 526 182 528 c 0,20,21
 173 603 173 603 141 665 c 0,22,23
 99 745 99 745 16 810 c 1,24,-1
 16 878 l 1,25,26
 20 877 20 877 37.5 887 c 128,-1,27
 55 897 55 897 69 897 c 0,28,29
 118 897 118 897 174 805 c 0,30,31
 219 730 219 730 256 619 c 0,32,33
 289 519 289 519 290 476 c 0,0,1
EndSplineSet
Validated: 1
EndChar

StartChar: plus
Encoding: 43 43 8
Width: 643
Flags: W
HStem: 267 69<39.4216 113.379> 338 106<489.379 583.594>
VStem: 279 98<462.598 641.492> 286 81<387 550.213> 294 82<130.181 296.986> 297 90<62.2502 237.712>
LayerCount: 2
Fore
SplineSet
616 374 m 1,0,1
 543 340 543 340 503 338 c 0,2,3
 391 331 391 331 376 329 c 1,4,5
 376 299 376 299 381.5 212.5 c 128,-1,6
 387 126 387 126 387 79 c 1,7,8
 381 70 381 70 375 62 c 1,9,10
 363 50 363 50 331 47 c 1,11,12
 297 68 297 68 297 130 c 0,13,14
 297 135 297 135 294 241 c 0,15,16
 292 297 292 297 277 297 c 0,17,18
 267 297 267 297 185 282 c 128,-1,19
 103 267 103 267 87 267 c 0,20,21
 62 267 62 267 28 299 c 1,22,-1
 28 336 l 1,23,24
 87 355 87 355 155 365 c 0,25,26
 247 379 247 379 284 387 c 1,27,28
 286 396 286 396 286 410 c 0,29,30
 286 427 286 427 282.5 476.5 c 128,-1,31
 279 526 279 526 279 551 c 0,32,33
 279 635 279 635 309 647 c 1,34,-1
 356 647 l 1,35,36
 377 614 377 614 377 572 c 0,37,38
 377 554 377 554 372 517.5 c 128,-1,39
 367 481 367 481 367 462 c 0,40,41
 367 427 367 427 379 398 c 1,42,43
 395 406 395 406 445 414 c 0,44,45
 479 420 479 420 557 442 c 0,46,47
 564 444 564 444 572 444 c 0,48,49
 587 444 587 444 616 430 c 1,50,51
 623 420 623 420 623 411 c 1,52,53
 623 408 l 0,54,55
 622 408 622 408 616 374 c 1,0,1
EndSplineSet
Validated: 8388609
EndChar

StartChar: comma
Encoding: 44 44 9
Width: 334
Flags: W
HStem: -171 330
VStem: 18 240
LayerCount: 2
Fore
SplineSet
258 104 m 0,0,1
 258 61 258 61 167.5 -52.5 c 128,-1,2
 77 -166 77 -166 42 -171 c 1,3,4
 18 -152 18 -152 18 -126 c 0,5,6
 18 -93 18 -93 91 27 c 128,-1,7
 164 147 164 147 198 159 c 0,8,9
 203 161 203 161 208 161 c 0,10,11
 227 161 227 161 244 137 c 0,12,13
 258 117 258 117 258 104 c 0,0,1
EndSplineSet
Validated: 1
EndChar

StartChar: hyphen
Encoding: 45 45 10
AltUni2: 002010.ffffffff.0
Width: 490
Flags: W
HStem: 266 98<42.1865 363.59>
LayerCount: 2
Fore
SplineSet
35 334 m 1,0,1
 58 364 58 364 80 364 c 0,2,3
 99 364 99 364 193 368.5 c 128,-1,4
 287 373 287 373 311 373 c 0,5,6
 319 373 319 373 358 382 c 128,-1,7
 397 391 397 391 405 391 c 0,8,9
 444 391 444 391 452 377 c 0,10,11
 454 374 454 374 454 342 c 0,12,13
 454 341 l 0,14,15
 454 305 454 305 351 285 c 1,16,17
 262 266 262 266 153 266 c 0,18,19
 48 266 48 266 35 284 c 1,20,-1
 35 334 l 1,0,1
EndSplineSet
Validated: 1
EndChar

StartChar: period
Encoding: 46 46 11
Width: 222
Flags: W
HStem: -34 141<80.7026 157.391>
VStem: 67 120<-14.7002 74.967>
LayerCount: 2
Fore
SplineSet
187 31 m 0,0,1
 187 0 187 0 160 -19 c 0,2,3
 139 -34 139 -34 122 -34 c 0,4,5
 101 -34 101 -34 67 -3 c 1,6,-1
 67 64 l 1,7,8
 88 107 88 107 123 107 c 0,9,10
 132 107 132 107 143 105 c 1,11,12
 144 103 144 103 169 70 c 0,13,14
 187 46 187 46 187 31 c 0,0,1
EndSplineSet
Validated: 1
EndChar

StartChar: slash
Encoding: 47 47 12
Width: 467
Flags: W
HStem: 794 20G<372.5 393> 794 20G<372.5 393>
LayerCount: 2
Fore
SplineSet
451 723 m 1,0,1
 451 723 l 0,2,3
 448 723 448 723 341 504 c 0,4,5
 194 205 194 205 90 10 c 1,6,7
 83 6 83 6 70 6 c 0,8,9
 45 6 45 6 21 21 c 128,-1,10
 -3 36 -3 36 -3 57 c 0,11,12
 -3 67 -3 67 3 77 c 0,13,14
 70 197 70 197 164 407 c 0,15,16
 272 648 272 648 294 692 c 0,17,18
 356 814 356 814 389 814 c 0,19,20
 397 814 397 814 404 807 c 1,21,22
 451 807 451 807 451 723 c 1,0,1
EndSplineSet
Validated: 8388609
EndChar

StartChar: zero
Encoding: 48 48 13
Width: 653
Flags: W
HStem: 49 80<181.117 347.145> 689 100<354.014 473.906>
VStem: 38 84<191.877 384.019> 528 90<375.15 620.293>
LayerCount: 2
Fore
SplineSet
618 519 m 0,0,1
 618 334 618 334 528 201 c 0,2,3
 425 49 425 49 248 49 c 0,4,5
 38 49 38 49 38 270 c 0,6,7
 38 272 38 272 38 274 c 0,8,9
 39 364 39 364 97 505 c 0,10,11
 161 659 161 659 228 689 c 0,12,13
 232 690 232 690 235 690 c 0,14,15
 241 690 241 690 245 681.5 c 128,-1,16
 249 673 249 673 251 673 c 0,17,18
 254 673 254 673 258 679 c 0,19,20
 301 738 301 738 354 767 c 0,21,22
 394 789 394 789 428 789 c 0,23,24
 538 789 538 789 586 688 c 0,25,26
 618 621 618 621 618 519 c 0,0,1
528 519 m 0,27,28
 528 568 528 568 508 616 c 0,29,30
 478 689 478 689 418 689 c 0,31,32
 321 689 321 689 221 536 c 0,33,34
 127 394 127 394 122 278 c 0,35,36
 122 273 122 273 122 268 c 0,37,38
 122 216 122 216 151 178 c 0,39,40
 189 129 189 129 258 129 c 0,41,42
 387 129 387 129 466 276 c 1,43,44
 528 394 528 394 528 519 c 0,27,28
EndSplineSet
Validated: 1
EndChar

StartChar: one
Encoding: 49 49 14
Width: 269
Flags: W
VStem: 83 101<168.834 670.681> 90 97<441.087 704.141>
LayerCount: 2
Fore
SplineSet
184 112 m 2,0,1
 184 44 184 44 165 44 c 0,2,3
 154 44 154 44 127 72 c 0,4,5
 83 117 83 117 83 435 c 0,6,7
 83 631 83 631 90 672 c 0,8,9
 94 694 94 694 132 720 c 1,10,11
 140 728 140 728 151 728 c 0,12,13
 169 728 169 728 187 710 c 1,14,-1
 184 112 l 2,0,1
EndSplineSet
Validated: 1
EndChar

StartChar: two
Encoding: 50 50 15
Width: 672
Flags: W
HStem: 675 120<423.66 530.5>
VStem: 512 110<555.601 621>
LayerCount: 2
Fore
SplineSet
622 655 m 0,0,1
 622 543 622 543 489 363 c 0,2,3
 417 264 417 264 259 95 c 1,4,5
 292 98 292 98 404 135 c 0,6,7
 509 170 509 170 541 170 c 0,8,9
 556 170 556 170 562 164.5 c 128,-1,10
 568 159 568 159 590 150 c 0,11,12
 606 143 606 143 612 132 c 1,13,-1
 612 86 l 1,14,15
 585 65 585 65 426.5 30 c 128,-1,16
 268 -5 268 -5 212 -5 c 0,17,18
 153 -5 153 -5 139 -1 c 0,19,20
 102 11 102 11 102 60 c 0,21,22
 102 102 102 102 208 196 c 0,23,24
 363 332 363 332 406 382 c 0,25,26
 512 506 512 506 512 621 c 1,27,-1
 496 663 l 1,28,29
 492 667 492 667 487.5 671 c 128,-1,30
 483 675 483 675 467 675 c 0,31,32
 405 675 405 675 313 615 c 0,33,34
 272 588 272 588 167 504 c 0,35,36
 92 445 92 445 72 445 c 0,37,38
 58 445 58 445 47.5 450.5 c 128,-1,39
 37 456 37 456 33 456 c 1,40,41
 33 459 33 459 27.5 472 c 128,-1,42
 22 485 22 485 22 500 c 0,43,44
 22 553 22 553 235 676 c 0,45,46
 440 795 440 795 502 795 c 0,47,48
 559 795 559 795 593 748 c 0,49,50
 622 709 622 709 622 655 c 0,0,1
EndSplineSet
Validated: 1
EndChar

StartChar: three
Encoding: 51 51 16
Width: 751
Flags: W
HStem: -28 110<219.796 484.562> 654 100<393.149 559.283>
VStem: 30 680<549 684> 175 545<169 370>
LayerCount: 2
Fore
SplineSet
720 169 m 0,0,1
 720 64 720 64 548 9 c 0,2,3
 432 -28 432 -28 317 -28 c 0,4,5
 306 -28 306 -28 295 -28 c 0,6,7
 285 -28 285 -28 256.5 -22 c 128,-1,8
 228 -16 228 -16 215 -16 c 0,9,10
 188 -16 188 -16 131 2 c 0,11,12
 80 19 80 19 51 35 c 1,13,14
 42 67 42 67 42 87 c 0,15,16
 42 144 42 144 115 144 c 0,17,18
 121 144 121 144 134 135 c 1,19,20
 153 124 153 124 183 114 c 0,21,22
 233 98 233 98 320 84 c 0,23,24
 328 82 328 82 344 82 c 0,25,26
 444 82 444 82 485 104 c 1,27,28
 523 122 523 122 561 139 c 1,29,30
 587 152 587 152 610 179 c 1,31,32
 584 232 584 232 500 259 c 0,33,34
 462 271 462 271 336 293 c 0,35,36
 232 312 232 312 191 335 c 1,37,38
 175 350 175 350 175 370 c 0,39,40
 175 389 175 389 191 403 c 1,41,42
 288 450 288 450 386 498 c 1,43,44
 503 557 503 557 560 638 c 1,45,46
 537 654 537 654 480 654 c 0,47,48
 401 654 401 654 85 494 c 1,49,50
 78 493 78 493 72 493 c 0,51,52
 30 493 30 493 30 549 c 0,53,54
 30 595 30 595 140 647 c 0,55,56
 227 689 227 689 357 723 c 1,57,58
 470 754 470 754 510 754 c 0,59,60
 568 754 568 754 628 739 c 0,61,62
 710 719 710 719 710 684 c 0,63,64
 710 620 710 620 555 507 c 0,65,66
 476 449 476 449 374 391 c 1,67,68
 479 379 479 379 578 333 c 0,69,70
 720 267 720 267 720 169 c 0,0,1
EndSplineSet
Validated: 8388609
EndChar

StartChar: four
Encoding: 52 52 17
Width: 625
Flags: W
HStem: 293 100<161.532 353.745> 303 90<280.408 360.965> 329.5 123.5<516.194 577.017> 773 20G<173 199.5 475 554>
VStem: 25 120<414.159 534.48> 340 107<5.90723 245.498>
LayerCount: 2
Fore
SplineSet
614 421 m 1,0,1
 615 416 615 416 615 410 c 0,2,3
 615 381 615 381 591 361 c 0,4,5
 573 346 573 346 530 329.5 c 128,-1,6
 487 313 487 313 477 305 c 1,7,8
 461 272 461 272 447 109 c 0,9,10
 435 -25 435 -25 400 -27 c 1,11,12
 340 2 340 2 340 85 c 0,13,14
 340 118 340 118 352.5 187.5 c 128,-1,15
 365 257 365 257 365 286 c 1,16,17
 363 288 363 288 361 298 c 0,18,19
 360 303 360 303 345 303 c 0,20,21
 334 303 334 303 313.5 298 c 128,-1,22
 293 293 293 293 280 293 c 0,23,24
 178 293 178 293 112 326 c 0,25,26
 25 369 25 369 25 463 c 0,27,28
 25 491 25 491 88 636 c 0,29,30
 156 793 156 793 190 793 c 0,31,32
 209 793 209 793 232 769.5 c 128,-1,33
 255 746 255 746 255 728 c 0,34,35
 255 715 255 715 200 613 c 128,-1,36
 145 511 145 511 145 499 c 2,37,-1
 145 420 l 1,38,39
 170 411 170 411 225 402 c 0,40,41
 284 393 284 393 323 393 c 0,42,43
 358 393 358 393 363 402 c 0,44,45
 378 430 378 430 394 523 c 0,46,47
 412 634 412 634 426 678 c 0,48,49
 452 762 452 762 498 792 c 1,50,-1
 554 781 l 1,51,52
 557 768 557 768 557 753 c 0,53,54
 557 714 557 714 518.5 613 c 128,-1,55
 480 512 480 512 480 457 c 0,56,57
 480 439 480 439 483 422 c 1,58,59
 485 421 485 421 488 421 c 0,60,61
 500 422 500 422 522 436 c 0,62,63
 547 453 547 453 559 453 c 0,64,65
 560 453 l 0,66,67
 572 453 572 453 588 440 c 0,68,69
 609 423 609 423 614 421 c 1,0,1
EndSplineSet
Validated: 8388609
EndChar

StartChar: five
Encoding: 53 53 18
Width: 711
Flags: W
HStem: -46 100<163.152 318.25> 304 108<203 364.514> 324 100<214.359 511.347> 655 109<273.386 452.749> 704 100<479.963 646.312> 774 20G<186 255>
VStem: 84 110<412.455 494.221>
LayerCount: 2
Fore
SplineSet
683 695 m 5,0,1
 656 685 656 685 636 685 c 4,2,3
 619 685 619 685 602.5 694.5 c 132,-1,4
 586 704 586 704 579 704 c 4,5,6
 578 704 578 704 467 679.5 c 132,-1,7
 356 655 356 655 303 655 c 4,8,9
 264 655 264 655 253 667 c 5,10,11
 234 631 234 631 213 542 c 4,12,13
 194 462 194 462 194 439 c 4,14,15
 194 424 194 424 198.5 419.5 c 132,-1,16
 203 415 203 415 203 412 c 5,17,18
 256 412 256 412 368 418 c 132,-1,19
 480 424 480 424 484 424 c 4,20,21
 547 424 547 424 605.5 374.5 c 132,-1,22
 664 325 664 325 664 279 c 4,23,24
 664 177 664 177 563 94 c 4,25,26
 481 27 481 27 352 -14 c 4,27,28
 253 -46 253 -46 188 -46 c 4,29,30
 181 -46 181 -46 174 -46 c 4,31,32
 157 -46 157 -46 110 -20 c 4,33,34
 59 7 59 7 45 27 c 5,35,36
 18 47 18 47 18 74 c 4,37,38
 18 103 18 103 45 133 c 5,39,40
 104 123 104 123 135 102 c 4,41,42
 137 101 137 101 170 69 c 4,43,44
 186 54 186 54 214 54 c 4,45,46
 311 54 311 54 437 126 c 4,47,48
 566 200 566 200 566 274 c 4,49,50
 566 280 566 280 565 286 c 5,51,52
 546 297 546 297 467 311 c 4,53,54
 399 324 399 324 384 324 c 4,55,56
 373 324 373 324 299 314 c 132,-1,57
 225 304 225 304 214 304 c 4,58,59
 167 304 167 304 127 336 c 5,60,61
 84 372 84 372 84 424 c 4,62,63
 84 441 84 441 97.5 475.5 c 132,-1,64
 111 510 111 510 127 530 c 5,65,66
 127 537 127 537 125 576 c 4,67,68
 123 607 123 607 123 626 c 4,69,70
 123 794 123 794 249 794 c 4,71,72
 261 794 261 794 285.5 779 c 132,-1,73
 310 764 310 764 319 764 c 4,74,75
 331 764 331 764 448.5 784 c 132,-1,76
 566 804 566 804 579 804 c 4,77,78
 624 804 624 804 645 791 c 5,79,80
 659 784 659 784 667 769 c 132,-1,81
 675 754 675 754 683 752 c 5,82,-1
 683 695 l 5,0,1
EndSplineSet
Validated: 8388609
EndChar

StartChar: six
Encoding: 54 54 19
Width: 644
Flags: W
HStem: -7 90<242.737 390.041> 353 110<362.686 502.568> 764 79<510.469 559.278>
LayerCount: 2
Fore
SplineSet
621 313 m 0,0,1
 622 303 622 303 622 294 c 0,2,3
 622 169 622 169 523 81 c 0,4,5
 425 -7 425 -7 301 -7 c 0,6,7
 181 -7 181 -7 105 96 c 0,8,9
 44 179 44 179 31 298 c 0,10,11
 30 308 30 308 30 318 c 0,12,13
 30 401 30 401 100 519 c 0,14,15
 176 648 176 648 286 742 c 1,16,17
 406 843 406 843 501 843 c 0,18,19
 537 843 537 843 560 821 c 1,20,-1
 560 764 l 1,21,22
 492 744 492 744 352 638 c 0,23,24
 174 503 174 503 121 375 c 1,25,26
 111 340 111 340 111 303 c 0,27,28
 111 240 111 240 134 221 c 1,29,30
 139 221 139 221 144 209 c 0,31,32
 151 194 151 194 155 190 c 1,33,34
 179 293 179 293 273 380 c 0,35,36
 364 463 364 463 441 463 c 0,37,38
 525 463 525 463 558 444 c 0,39,40
 615 413 615 413 621 313 c 0,0,1
521 283 m 0,41,42
 521 312 521 312 503 331 c 0,43,44
 482 353 482 353 441 353 c 0,45,46
 357 353 357 353 294 266 c 0,47,48
 241 193 241 193 241 137 c 2,49,-1
 241 95 l 1,50,51
 264 83 264 83 306 83 c 0,52,53
 379 83 379 83 450 145.5 c 128,-1,54
 521 208 521 208 521 283 c 0,41,42
EndSplineSet
Validated: 1
EndChar

StartChar: seven
Encoding: 55 55 20
Width: 672
Flags: W
VStem: 159 131<48.8572 132.803>
LayerCount: 2
Fore
SplineSet
689 752 m 1,0,1
 514 549 514 549 406 346 c 0,2,3
 382 299 382 299 290 90 c 0,4,5
 251 1 251 1 209 -1 c 0,6,7
 208 -1 208 -1 207 -1 c 0,8,9
 184 -1 184 -1 171 25 c 0,10,11
 159 47 159 47 159 74 c 0,12,13
 159 120 159 120 333 396 c 1,14,15
 431 549 431 549 530 701 c 1,16,17
 527 701 527 701 523 705 c 128,-1,18
 519 709 519 709 504 709 c 0,19,20
 485 709 485 709 298 669 c 0,21,22
 108 629 108 629 89 619 c 0,23,24
 77 612 77 612 63 612 c 0,25,26
 32 612 32 612 0 641 c 1,27,-1
 0 687 l 1,28,29
 37 739 37 739 300 783 c 0,30,31
 516 819 516 819 629 819 c 0,32,33
 643 819 643 819 689 797 c 1,34,-1
 689 752 l 1,0,1
EndSplineSet
Validated: 1
EndChar

StartChar: eight
Encoding: 56 56 21
Width: 602
Flags: W
HStem: -8 90<245.108 408.135> 692 80<312.95 471.435>
VStem: 95 115<114.482 204.77> 445 110<109.339 186.368>
LayerCount: 2
Fore
SplineSet
575 662 m 0,0,1
 575 635 575 635 467 513.5 c 128,-1,2
 359 392 359 392 359 375 c 0,3,4
 359 372 359 372 361 370 c 0,5,6
 447 309 447 309 471 286 c 0,7,8
 555 207 555 207 555 132 c 0,9,10
 555 76 555 76 464 30 c 0,11,12
 388 -8 388 -8 335 -8 c 2,13,-1
 270 -8 l 2,14,15
 226 -8 226 -8 160.5 46 c 128,-1,16
 95 100 95 100 95 142 c 0,17,18
 95 167 95 167 131 231 c 0,19,20
 170 299 170 299 212 342 c 0,21,22
 214 344 214 344 214 347 c 0,23,24
 214 357 214 357 168 393 c 1,25,26
 107 439 107 439 81 468 c 0,27,28
 35 519 35 519 35 567 c 0,29,30
 35 626 35 626 181 702 c 0,31,32
 315 772 315 772 380 772 c 0,33,34
 575 772 575 772 575 662 c 0,0,1
474 684 m 1,35,36
 443 692 443 692 423 692 c 0,37,38
 405 692 405 692 371 684 c 1,39,40
 370 684 370 684 368 684 c 0,41,42
 343 684 343 684 274 655 c 1,43,44
 186 619 186 619 136 571 c 1,45,46
 136 568 136 568 136 565 c 0,47,48
 136 538 136 538 177 490 c 1,49,50
 225 432 225 432 265 432 c 0,51,52
 308 432 308 432 377 531 c 1,53,54
 426 608 426 608 474 684 c 1,35,36
445 137 m 0,55,56
 445 173 445 173 381 232 c 0,57,58
 331 278 331 278 289 302 c 1,59,60
 265 272 265 272 242 242 c 0,61,62
 210 199 210 199 210 164 c 0,63,64
 210 148 210 148 216 133 c 1,65,66
 249 82 249 82 325 82 c 0,67,68
 338 82 338 82 358 92 c 128,-1,69
 378 102 378 102 390 102 c 0,70,71
 411 102 411 102 428 111.5 c 128,-1,72
 445 121 445 121 445 137 c 0,55,56
EndSplineSet
Validated: 1
EndChar

StartChar: nine
Encoding: 57 57 22
Width: 538
Flags: W
HStem: 289 100<139.969 248.615> 719 110<271.148 400.603>
VStem: 17 100<390.097 551.098>
LayerCount: 2
Fore
SplineSet
517 649 m 0,0,1
 517 619 517 619 476 441 c 0,2,3
 428 236 428 236 381 97 c 0,4,5
 320 -85 320 -85 277 -91 c 0,6,7
 272 -92 272 -92 267 -92 c 0,8,9
 227 -92 227 -92 227 -31 c 0,10,11
 227 2 227 2 337 304 c 1,12,-1
 358 379 l 1,13,14
 331 349 331 349 265 318 c 0,15,16
 204 289 204 289 182 289 c 0,17,18
 113 289 113 289 63 342 c 0,19,20
 17 391 17 391 17 449 c 0,21,22
 17 581 17 581 122 702 c 0,23,24
 232 829 232 829 362 829 c 0,25,26
 443 829 443 829 485 766 c 0,27,28
 517 717 517 717 517 649 c 0,0,1
417 664 m 0,29,30
 415 683 415 683 397.5 701 c 128,-1,31
 380 719 380 719 362 719 c 0,32,33
 259 719 259 719 182 620 c 0,34,35
 117 537 117 537 117 464 c 0,36,37
 117 430 117 430 139 389 c 1,38,39
 155 382 155 382 170 382 c 0,40,-1
 201 389 l 1,41,42
 202 389 202 389 203 389 c 0,43,44
 285 389 285 389 354 480 c 0,45,46
 417 562 417 562 418 645 c 0,47,48
 418 655 418 655 417 664 c 0,29,30
EndSplineSet
Validated: 1
EndChar

StartChar: colon
Encoding: 58 58 23
Width: 232
Flags: W
HStem: 53 128<78.8613 178.177> 387 127<58.0564 149.533>
VStem: 37 136<403.377 490.938> 46 157<69 149.974>
LayerCount: 2
Fore
SplineSet
173 417 m 5,0,1
 159 405 159 405 132 395 c 4,2,3
 109 387 109 387 100 387 c 4,4,5
 37 387 37 387 37 436 c 4,6,7
 37 456 37 456 52 483 c 4,8,9
 69 514 69 514 91 514 c 4,10,11
 131 514 131 514 173 473 c 5,12,13
 180 457 180 457 180 443 c 132,-1,14
 180 429 180 429 173 417 c 5,0,1
203 117 m 4,15,16
 203 53 203 53 120 53 c 4,17,18
 91 53 91 53 70 65 c 4,19,20
 46 79 46 79 46 102 c 4,21,22
 46 137 46 137 81 161 c 4,23,24
 110 181 110 181 140 181 c 4,25,26
 158 181 158 181 180.5 158 c 132,-1,27
 203 135 203 135 203 117 c 4,15,16
EndSplineSet
Validated: 8388609
EndChar

StartChar: semicolon
Encoding: 59 59 24
Width: 266
Flags: W
HStem: -190 373<28 135> 320 127<78.3906 170.05>
VStem: 57 137<337.274 423.938> 87 137<35.6289 150.34>
LayerCount: 2
Fore
SplineSet
194 351 m 1,0,1
 179 338 179 338 152 328 c 0,2,3
 129 320 129 320 121 320 c 0,4,5
 57 320 57 320 57 369 c 0,6,7
 57 389 57 389 72 416 c 0,8,9
 89 447 89 447 111 447 c 0,10,11
 151 447 151 447 194 406 c 1,12,13
 197 389 197 389 197 375 c 128,-1,14
 197 361 197 361 194 351 c 1,0,1
224 109 m 0,15,16
 224 66 224 66 155 -56 c 0,17,18
 79 -190 79 -190 28 -190 c 0,19,20
 -31 -190 -31 -190 -31 -120 c 0,21,22
 -31 -111 -31 -111 -30 -102 c 1,23,24
 48 -46 48 -46 71 18 c 0,25,26
 73 24 73 24 87 114 c 0,27,28
 94 161 94 161 135 183 c 1,29,30
 169 183 169 183 198 155 c 0,31,32
 224 130 224 130 224 109 c 0,15,16
EndSplineSet
Validated: 8388609
EndChar

StartChar: equal
Encoding: 61 61 25
Width: 726
Flags: W
HStem: 150 115<100.403 351.241> 231 80<602.884 675.28> 390 131<83.4102 182.855> 430 110<332.395 596.487>
LayerCount: 2
Fore
SplineSet
625 505 m 1,0,1
 633 488 633 488 633 475 c 0,2,3
 633 430 633 430 542 430 c 0,4,5
 529 430 529 430 436.5 435 c 128,-1,6
 344 440 344 440 332 440 c 0,7,8
 254 440 254 440 192.5 415 c 128,-1,9
 131 390 131 390 117 390 c 0,10,11
 87 390 87 390 66.5 408.5 c 128,-1,12
 46 427 46 427 46 459 c 0,13,14
 46 469 46 469 48 480 c 1,15,16
 69 503 69 503 179 521 c 0,17,18
 302 540 302 540 472 540 c 0,19,20
 563 540 563 540 625 505 c 1,0,1
676 231 m 1,21,22
 629 207 629 207 394 177 c 0,23,24
 190 150 190 150 142 150 c 0,25,26
 123 150 123 150 102 170 c 128,-1,27
 81 190 81 190 77 210 c 0,28,29
 76 214 76 214 76 218 c 0,30,31
 76 252 76 252 143 265 c 0,32,33
 185 273 185 273 340 283 c 0,34,35
 508 293 508 293 612 310 c 0,36,37
 619 311 619 311 625 311 c 0,38,39
 653 311 653 311 676 289 c 0,40,41
 685 280 685 280 685 265 c 0,42,43
 685 249 685 249 676 231 c 1,21,22
EndSplineSet
Validated: 8388609
EndChar

StartChar: question
Encoding: 63 63 26
Width: 588
Flags: W
HStem: 30 131<91.8369 181.137> 744 76<247.657 405.738>
VStem: 479 110<603.421 692.346>
LayerCount: 2
Fore
SplineSet
589 650 m 0,0,1
 589 592 589 592 507 531 c 0,2,3
 448 488 448 488 346 443 c 1,4,5
 291 420 291 420 236 397 c 1,6,7
 189 334 189 334 153 306 c 1,8,9
 139 299 139 299 126 291 c 1,10,-1
 80 291 l 1,11,12
 80 294 80 294 74.5 313.5 c 128,-1,13
 69 333 69 333 69 345 c 0,14,15
 69 412 69 412 175 468 c 1,16,17
 274 510 274 510 373 552 c 0,18,19
 479 598 479 598 479 645 c 0,20,21
 479 717 479 717 324 744 c 1,22,23
 290 744 290 744 162 686 c 0,24,25
 44 633 44 633 18 633 c 0,26,27
 17 633 17 633 15 633 c 0,28,29
 -21 638 -21 638 -30 657 c 0,30,31
 -31 661 -31 661 -31 680 c 0,32,33
 -31 755 -31 755 139 795 c 0,34,35
 250 821 250 821 343 821 c 0,36,37
 359 821 359 821 374 820 c 0,38,39
 435 817 435 817 507 770 c 0,40,41
 589 716 589 716 589 650 c 0,0,1
198 61 m 1,42,43
 148 30 148 30 109 30 c 0,44,45
 93 30 93 30 81 46 c 128,-1,46
 69 62 69 62 69 80 c 0,47,48
 69 111 69 111 89 136 c 128,-1,49
 109 161 109 161 126 161 c 0,50,51
 174 161 174 161 206 131 c 1,52,-1
 198 61 l 1,42,43
EndSplineSet
Validated: 1
EndChar

StartChar: at
Encoding: 64 64 27
Width: 1004
Flags: W
HStem: -75 90<402.75 579.72> -59 129<759.848 821.895> 105 105<656.095 709.993> 446 100<483.369 594.778> 735 90<506.569 729.421>
VStem: 32 79<216.375 388.91> 282 99<231.144 333.172> 881 76<449.298 622.744>
LayerCount: 2
Fore
SplineSet
957 555 m 0,0,1
 957 433 957 433 876 278 c 0,2,3
 785 105 785 105 681 105 c 2,4,-1
 652 105 l 2,5,6
 565 105 565 105 565 231 c 0,7,8
 565 269 565 269 575 312 c 1,9,10
 548 266 548 266 522.5 222 c 128,-1,11
 497 178 497 178 471 162 c 1,12,13
 440 141 440 141 386 141 c 0,14,15
 340 141 340 141 309 181 c 0,16,17
 282 216 282 216 282 258 c 0,18,19
 282 355 282 355 382 452 c 0,20,21
 479 546 479 546 570 546 c 0,22,23
 586 546 586 546 713 517 c 1,24,25
 713 514 713 514 718 507 c 128,-1,26
 723 500 723 500 723 487 c 0,27,28
 723 477 723 477 694 385 c 0,29,30
 663 286 663 286 656 229 c 1,31,32
 659 210 659 210 669 210 c 0,33,34
 673 210 673 210 678 213 c 0,35,36
 837 285 837 285 879 536 c 0,37,38
 881 546 881 546 881 556 c 0,39,40
 881 637 881 637 779 691 c 0,41,42
 695 735 695 735 615 735 c 0,43,44
 526 735 526 735 405 665.5 c 128,-1,45
 284 596 284 596 202 498 c 0,46,47
 111 389 111 389 111 294 c 0,48,49
 111 214 111 214 196 143 c 0,50,51
 264 87 264 87 370 48 c 0,52,53
 459 15 459 15 507 15 c 0,54,55
 509 15 509 15 556 4 c 0,56,57
 588 -4 588 -4 617 -4 c 0,58,59
 628 -4 628 -4 638 -3 c 1,60,61
 690 1 690 1 740 35.5 c 128,-1,62
 790 70 790 70 811 70 c 0,63,64
 829 70 829 70 850 59 c 2,65,-1
 866 50 l 1,66,67
 876 0 l 1,68,69
 831 -38 831 -38 775 -59 c 0,70,71
 733 -75 733 -75 708 -75 c 1,72,73
 653 -88 653 -88 582 -88 c 0,74,75
 509 -88 509 -88 441 -75 c 1,76,77
 420 -75 420 -75 330 -40 c 0,78,79
 226 1 226 1 156 44 c 1,80,81
 66 101 66 101 66 146 c 1,82,83
 32 214 32 214 32 292 c 0,84,85
 32 367 32 367 66 443 c 0,86,87
 122 566 122 566 285 690 c 0,88,89
 463 825 463 825 606 825 c 0,90,91
 744 825 744 825 838 769 c 0,92,93
 957 697 957 697 957 555 c 0,0,1
613 455 m 1,94,-1
 531 446 l 1,95,96
 482 446 482 446 428 372 c 0,97,98
 381 306 381 306 381 276 c 0,99,100
 381 264 381 264 387 249 c 128,-1,101
 393 234 393 234 393 231 c 1,102,103
 455 252 455 252 524 331 c 0,104,105
 574 387 574 387 613 455 c 1,94,-1
EndSplineSet
Validated: 8388609
EndChar

StartChar: A
Encoding: 65 65 28
Width: 531
Flags: W
HStem: 819 20G<270.5 335.5> 819 20G<270.5 335.5>
VStem: 405 116<35.9375 245.194>
LayerCount: 2
Fore
SplineSet
492 318 m 0,0,1
 521 169 521 169 521 110 c 0,2,3
 521 22 521 22 471 22 c 0,4,5
 457 22 457 22 439 29 c 1,6,7
 411 35 411 35 405 104 c 0,8,9
 404 117 404 117 404 242 c 1,10,11
 398 249 398 249 392 249 c 1,12,13
 391 249 391 249 369 249 c 0,14,15
 357 249 357 249 276 214 c 1,16,17
 166 168 166 168 145 160 c 1,18,19
 140 146 140 146 119 42 c 0,20,21
 105 -31 105 -31 71 -71 c 1,22,23
 51 -75 51 -75 36 -75 c 0,24,25
 -4 -75 -4 -75 -17 -45 c 1,26,27
 -26 -27 -26 -27 -26 14 c 0,28,29
 -26 23 -26 23 42 232 c 0,30,31
 120 470 120 470 179 627 c 0,32,33
 259 839 259 839 282 839 c 0,34,35
 389 839 389 839 492 318 c 0,0,1
394 373 m 1,36,37
 361 521 361 521 337 570 c 1,38,39
 313 609 313 609 289 649 c 1,40,41
 185 388 185 388 185 354 c 0,42,43
 185 353 l 1,44,-1
 185 310 l 1,45,46
 226 323 226 323 317 344 c 0,47,48
 374 357 374 357 394 373 c 1,36,37
EndSplineSet
Validated: 8388609
EndChar

StartChar: B
Encoding: 66 66 29
Width: 616
Flags: W
HStem: 756 110<306.769 467.658>
VStem: 29 124<591.518 698> 86 94<87.3257 300.725 467 544.348> 469 100<648.539 742.953> 509 100<288.469 394.432>
LayerCount: 2
Fore
SplineSet
609 366 m 0,0,1
 609 290 609 290 515 182 c 0,2,3
 426 80 426 80 304 5 c 0,4,5
 177 -74 177 -74 89 -74 c 0,6,7
 39 -74 39 -74 39 -19 c 0,8,9
 39 -6 39 -6 67.5 27 c 128,-1,10
 96 60 96 60 96 71 c 0,11,12
 96 74 96 74 90 138.5 c 128,-1,13
 84 203 84 203 84 243 c 0,14,15
 84 264 84 264 86 279 c 1,16,17
 66 299 66 299 47.5 318.5 c 128,-1,18
 29 338 29 338 29 356 c 0,19,20
 29 366 29 366 86 438 c 1,21,22
 86 470 86 470 57.5 568.5 c 128,-1,23
 29 667 29 667 29 681 c 0,24,25
 29 715 29 715 53 748 c 0,26,27
 84 791 84 791 135 791 c 1,28,29
 159 797 159 797 286 838 c 0,30,31
 375 866 375 866 389 866 c 0,32,33
 569 866 569 866 569 726 c 0,34,35
 569 660 569 660 545 629 c 0,36,37
 480 541 480 541 459 503 c 1,38,39
 540 487 540 487 574.5 456.5 c 128,-1,40
 609 426 609 426 609 366 c 0,0,1
469 690 m 1,41,-1
 469 734 l 1,42,43
 423 756 423 756 394 756 c 0,44,45
 318 756 318 756 243 721 c 0,46,47
 153 679 153 679 153 614 c 0,48,49
 153 602 153 602 167 542.5 c 128,-1,50
 181 483 181 483 181 467 c 1,51,52
 270 489 270 489 317 516 c 0,53,54
 420 574 420 574 469 690 c 1,41,-1
509 351 m 0,55,56
 509 406 509 406 439 406 c 0,57,58
 354 406 354 406 328 395 c 0,59,60
 217 347 217 347 180 335 c 1,61,62
 180 315 180 315 183 208 c 0,63,64
 184 186 184 186 184 166 c 0,65,66
 184 117 184 117 180 87 c 1,67,-1
 225 87 l 1,68,69
 271 102 271 102 373 177 c 0,70,71
 509 277 509 277 509 351 c 0,55,56
EndSplineSet
Validated: 8388609
EndChar

StartChar: C
Encoding: 67 67 30
Width: 524
Flags: W
HStem: -29 100<215.569 374.923> 701 110<235.576 364.978>
VStem: 11 100<237.797 507.801> 377 114<493.987 688.031>
LayerCount: 2
Fore
SplineSet
511 146 m 0,0,1
 511 61 511 61 413 10 c 0,2,3
 338 -29 338 -29 266 -29 c 0,4,5
 261 -29 261 -29 256 -29 c 0,6,7
 136 -29 136 -29 63 144 c 1,8,9
 11 264 11 264 11 367 c 0,10,11
 11 373 11 373 11 381 c 0,12,13
 11 536 11 536 93 667 c 1,14,15
 182 811 182 811 331 811 c 0,16,17
 406 811 406 811 454 724 c 0,18,19
 491 658 491 658 491 601 c 0,20,21
 491 552 491 552 475 501 c 0,22,23
 455 441 455 441 426 441 c 0,24,25
 356 441 356 441 356 502 c 0,26,27
 356 523 356 523 366.5 571 c 128,-1,28
 377 619 377 619 377 640 c 0,29,30
 377 701 377 701 306 701 c 0,31,32
 203 701 203 701 148 553 c 0,33,34
 111 456 111 456 111 381 c 0,35,36
 111 291 111 291 145 198 c 0,37,38
 192 71 192 71 276 71 c 0,39,40
 341 71 341 71 383 95 c 0,41,42
 406 109 406 109 440 147 c 1,43,44
 472 180 472 180 497 191 c 1,45,46
 511 177 511 177 511 146 c 0,0,1
EndSplineSet
Validated: 1
EndChar

StartChar: D
Encoding: 68 68 31
Width: 556
Flags: W
HStem: 699 121<115 198.231>
VStem: 25 119<163.907 357.342> 32 103<217.358 696.383> 444 98<370.741 532.284>
LayerCount: 2
Fore
SplineSet
542 470 m 0,0,1
 542 375 542 375 455 261 c 0,2,3
 376 158 376 158 266 85 c 0,4,5
 159 14 159 14 89 14 c 0,6,7
 86 14 86 14 83 14 c 0,8,9
 25 14 25 14 25 216 c 0,10,11
 25 259 25 259 28.5 360.5 c 128,-1,12
 32 462 32 462 32 514 c 0,13,14
 32 654 32 654 13 727 c 0,15,16
 6 752 6 752 6 768 c 0,17,18
 6 820 6 820 72 820 c 0,19,20
 161 820 161 820 273 769.5 c 128,-1,21
 385 719 385 719 459 643 c 0,22,23
 542 557 542 557 542 470 c 0,0,1
156 699 m 1,24,-1
 115 699 l 1,25,26
 126 616 126 616 135 436 c 0,27,28
 144 269 144 269 144 161 c 1,29,30
 263 181 263 181 353.5 271.5 c 128,-1,31
 444 362 444 362 444 455 c 0,32,33
 444 544 444 544 340 616 c 0,34,35
 263 669 263 669 156 699 c 1,24,-1
EndSplineSet
Validated: 8388609
EndChar

StartChar: E
Encoding: 69 69 32
Width: 602
Flags: W
HStem: -70 110<184.326 347.614> 773 37<622.026 633.801>
VStem: 45 100<82.1234 261.831>
LayerCount: 2
Fore
SplineSet
636 773 m 1,0,1
 576 694 576 694 445 659 c 0,2,3
 268 613 268 613 249 603 c 0,4,5
 159 554 159 554 159 424 c 0,6,7
 159 402 159 402 162 377 c 1,8,9
 162 380 162 380 185 380 c 0,10,11
 197 380 197 380 328 430 c 0,12,13
 456 479 456 479 470 479 c 0,14,15
 471 479 471 479 471 479 c 1,16,-1
 544 479 l 1,17,-1
 544 423 l 1,18,19
 449 352 449 352 335 314 c 1,20,21
 244 288 244 288 153 261 c 1,22,23
 145 247 145 247 145 190 c 0,24,25
 145 112 145 112 169 78 c 1,26,27
 194 40 194 40 255 40 c 0,28,29
 313 40 313 40 409 80 c 0,30,31
 550 138 550 138 553 139 c 1,32,33
 553 136 553 136 559 125 c 128,-1,34
 565 114 565 114 565 100 c 0,35,36
 565 57 565 57 492 13 c 0,37,38
 437 -20 437 -20 352 -47 c 1,39,40
 283 -70 283 -70 265 -70 c 0,41,42
 122 -70 122 -70 74 38 c 0,43,44
 45 102 45 102 45 245 c 0,45,46
 45 360 45 360 68 498 c 0,47,48
 105 720 105 720 180 720 c 0,49,50
 191 720 191 720 206.5 715 c 128,-1,51
 222 710 222 710 235 710 c 0,52,53
 272 710 272 710 407.5 760 c 128,-1,54
 543 810 543 810 600 810 c 0,55,56
 617 810 617 810 628 798.5 c 128,-1,57
 639 787 639 787 639 778 c 0,58,59
 639 773 639 773 636 773 c 1,0,1
EndSplineSet
Validated: 1
EndChar

StartChar: F
Encoding: 70 70 33
Width: 566
Flags: W
HStem: 737 100<303.298 488.525> 737 86<366.828 542.526> 767 20G<78.5 92.5>
VStem: 31 126<475.088 650.398> 94 95<-22.8027 159.538>
LayerCount: 2
Fore
SplineSet
571 757 m 0,0,1
 571 741 571 741 563 732.5 c 128,-1,2
 555 724 555 724 547 717 c 1,3,4
 519 718 519 718 480 727.5 c 128,-1,5
 441 737 441 737 431 737 c 0,6,7
 357 737 357 737 297 713 c 1,8,9
 223 682 223 682 150 651 c 1,10,11
 154 632 154 632 154 580 c 1,12,13
 156 502 156 502 157 473 c 1,14,15
 185 480 185 480 280 520 c 0,16,17
 365 556 365 556 377 556 c 1,18,19
 400 562 400 562 424 562 c 0,20,21
 447 562 447 562 470 556 c 1,22,23
 470 552 470 552 475.5 544 c 128,-1,24
 481 536 481 536 481 522 c 0,25,26
 481 495 481 495 401 457 c 0,27,28
 375 445 375 445 248 396 c 0,29,30
 163 364 163 364 157 350 c 1,31,32
 189 97 189 97 189 59 c 0,33,34
 189 -13 189 -13 148 -43 c 1,35,36
 146 -43 146 -43 145 -43 c 128,-1,37
 144 -43 144 -43 143 -43 c 128,-1,38
 142 -43 142 -43 141 -43 c 0,39,40
 125 -43 125 -43 94 -18 c 1,41,42
 76 91 76 91 52 395 c 0,43,44
 31 668 31 668 31 727 c 0,45,46
 31 757 31 757 54 774 c 0,47,48
 71 787 71 787 86 787 c 0,49,50
 99 787 99 787 116.5 772 c 128,-1,51
 134 757 134 757 146 757 c 0,52,53
 152 757 152 757 194 777 c 1,54,55
 245 803 245 803 286 816 c 0,56,57
 350 837 350 837 411 837 c 0,58,59
 425 837 425 837 437.5 830.5 c 128,-1,60
 450 824 450 824 459 822 c 1,61,62
 468 823 468 823 478 823 c 0,63,64
 514 823 514 823 542.5 801.5 c 128,-1,65
 571 780 571 780 571 757 c 0,0,1
EndSplineSet
Validated: 8388609
EndChar

StartChar: G
Encoding: 71 71 34
Width: 609
Flags: W
HStem: 319 105<353.511 453.621> 754 110<297.748 445.359>
VStem: 20 102<126.566 491.444> 34 100<101.203 275.974 280.095 290.111 292.175 545.363> 464 100<218.027 307.719> 475 109<660.589 727.127>
LayerCount: 2
Fore
SplineSet
584 694 m 0,0,1
 584 664 584 664 570 632 c 0,2,3
 552 592 552 592 524 584 c 0,4,5
 507 579 507 579 493 579 c 0,6,7
 443 579 443 579 443 630 c 0,8,9
 443 638 443 638 444 648 c 0,10,11
 444 654 444 654 475 680 c 1,12,-1
 475 718 l 1,13,14
 403 754 403 754 379 754 c 0,15,16
 278 754 278 754 200 633 c 0,17,18
 134 530 134 530 134 440 c 1,19,20
 122 328 122 328 122 291 c 0,21,22
 122 263 122 263 134 178 c 1,23,24
 134 132 134 132 163 89 c 0,25,26
 193 44 193 44 232 44 c 0,27,28
 236 44 236 44 239 44 c 0,29,30
 302 44 302 44 386 132 c 0,31,32
 462 213 462 213 464 287 c 1,33,34
 434 319 434 319 421 319 c 0,35,36
 416 319 416 319 411 318 c 0,37,38
 363 305 363 305 314 277 c 0,39,40
 274 254 274 254 264 254 c 0,41,42
 246 254 246 254 230 265 c 128,-1,43
 214 276 214 276 214 294 c 0,44,45
 214 355 214 355 300 394 c 0,46,47
 366 424 366 424 419 424 c 0,48,49
 462 424 462 424 508 400 c 0,50,51
 564 370 564 370 564 329 c 0,52,53
 564 207 564 207 461 83 c 1,54,55
 356 -46 356 -46 241 -46 c 0,56,57
 240 -46 240 -46 239 -46 c 0,58,59
 150 -46 150 -46 89 24 c 0,60,61
 34 87 34 87 34 170 c 1,62,63
 20 213 20 213 20 278 c 0,64,65
 20 345 20 345 34 418 c 1,66,67
 34 501 34 501 76 602 c 0,68,69
 122 713 122 713 195 783 c 1,70,71
 282 864 282 864 384 864 c 0,72,73
 460 864 460 864 518 822 c 0,74,75
 584 773 584 773 584 694 c 0,0,1
EndSplineSet
Validated: 8388609
EndChar

StartChar: H
Encoding: 72 72 35
Width: 633
Flags: W
HStem: 778 20G<78.5 111 472.5 500> 798 20G<472.5 500>
VStem: 457 97<408.077 772.959>
LayerCount: 2
Fore
SplineSet
594 123 m 1,0,1
 594 75 594 75 587 57 c 0,2,3
 575 28 575 28 529 8 c 0,4,5
 525 6 525 6 520 6 c 0,6,7
 494 6 494 6 480 83 c 0,8,9
 473 123 473 123 463 237 c 1,10,11
 456 330 456 330 447 349 c 1,12,13
 275 321 275 321 218 291 c 0,14,15
 165 264 165 264 165 208 c 0,16,17
 165 191 165 191 174.5 125 c 128,-1,18
 184 59 184 59 184 6 c 0,19,20
 184 -46 184 -46 175 -60 c 128,-1,21
 166 -74 166 -74 157 -87 c 1,22,-1
 116 -71 l 1,23,24
 92 -64 92 -64 73 127 c 1,25,26
 63 214 63 214 45 494 c 0,27,28
 31 709 31 709 24 738 c 1,29,30
 24 742 l 0,31,32
 24 745 l 0,33,34
 24 746 24 746 24 747 c 128,-1,35
 24 748 24 748 24 749 c 0,36,37
 24 758 24 758 44 776 c 0,38,39
 68 798 68 798 89 798 c 0,40,41
 133 798 133 798 147 627 c 0,42,43
 150 589 150 589 154 414 c 1,44,45
 162 396 162 396 196 396 c 0,46,47
 223 396 223 396 292.5 412 c 128,-1,48
 362 428 362 428 384 428 c 0,49,50
 396 428 396 428 411 417.5 c 128,-1,51
 426 407 426 407 436 407 c 1,52,53
 436 441 436 441 446.5 532.5 c 128,-1,54
 457 624 457 624 457 668 c 0,55,56
 457 741 457 741 435 774 c 0,57,58
 435 775 435 775 453 800 c 0,59,60
 466 818 466 818 479 818 c 0,61,62
 521 818 521 818 554 785 c 1,63,-1
 554 322 l 2,64,65
 554 265 554 265 565 215 c 0,66,67
 572 179 572 179 584 148 c 0,68,69
 594 122 594 122 594 123 c 1,0,1
EndSplineSet
Validated: 8388609
EndChar

StartChar: I
Encoding: 73 73 36
Width: 331
Flags: W
HStem: 9 21G<161.5 180> 786 20G<155 186.5> 786 20G<155 186.5>
VStem: 124 106<198.151 580.75> 136 98<25.3943 250.167>
LayerCount: 2
Fore
SplineSet
234 191 m 0,0,1
 234 131 234 131 212 22 c 1,2,3
 188 9 188 9 172 9 c 0,4,5
 151 9 151 9 136 32 c 1,6,-1
 124 406 l 1,7,8
 119 465 119 465 100 603 c 0,9,10
 84 725 84 725 84 736 c 0,11,12
 84 748 84 748 89.5 764 c 128,-1,13
 95 780 95 780 95 790 c 1,14,15
 126 790 126 790 144 801 c 0,16,17
 152 806 152 806 158 806 c 0,18,19
 215 806 215 806 230 501 c 0,20,21
 234 421 234 421 234 191 c 0,0,1
EndSplineSet
Validated: 1
EndChar

StartChar: J
Encoding: 74 74 37
Width: 590
Flags: W
HStem: 826 20G<528 566.5>
VStem: -1 124<242.95 350.033> 368 101<182.923 659.75>
LayerCount: 2
Fore
SplineSet
629 812 m 5,0,1
 614 772 614 772 559 744 c 4,2,3
 514 721 514 721 469 698 c 5,4,-1
 469 410 l 6,5,6
 469 258 469 258 437 137 c 4,7,8
 386 -54 386 -54 272 -54 c 4,9,10
 267 -54 267 -54 263 -54 c 133,-1,11
 259 -54 259 -54 255 -54 c 4,12,13
 179 -54 179 -54 89 90 c 4,14,15
 -1 235 -1 235 -1 336 c 4,16,17
 -1 359 -1 359 25 391 c 5,18,19
 37 397 37 397 48 397 c 4,20,21
 88 397 88 397 123 302 c 4,22,23
 154 216 154 216 184 130 c 5,24,25
 221 46 221 46 267 46 c 4,26,27
 271 46 271 46 274 46 c 5,28,29
 343 90 343 90 361 217 c 4,30,31
 368 269 368 269 368 449 c 4,32,33
 368 581 368 581 363 611 c 4,34,35
 349 691 349 691 289 691 c 4,36,37
 266 691 266 691 235 680 c 5,38,39
 230 699 230 699 230 714 c 4,40,41
 230 745 230 745 256 760 c 4,42,43
 288 778 288 778 292 785 c 5,44,45
 296 784 296 784 302 784 c 4,46,47
 337 784 337 784 413 812 c 4,48,49
 507 846 507 846 549 846 c 4,50,51
 584 846 584 846 629 812 c 5,0,1
EndSplineSet
Validated: 1
EndChar

StartChar: K
Encoding: 75 75 38
Width: 601
Flags: W
VStem: 32 142<663.312 801.437>
LayerCount: 2
Fore
SplineSet
600 716 m 5,0,1
 527 641 527 641 402 580 c 4,2,3
 217 489 217 489 180 466 c 5,4,5
 194 451 194 451 296 382 c 4,6,7
 412 303 412 303 464 259 c 4,8,9
 550 187 550 187 550 147 c 4,10,11
 550 130 550 130 528 107 c 132,-1,12
 506 84 506 84 485 82 c 4,13,14
 483 82 483 82 482 82 c 4,15,-1
 433 112 l 4,16,17
 378 182 378 182 357 202 c 4,18,19
 287 271 287 271 174 333 c 5,20,-1
 140 333 l 5,21,-1
 140 16 l 6,22,23
 140 0 140 0 129 -9.5 c 132,-1,24
 118 -19 118 -19 107 -26 c 4,25,26
 84 -42 84 -42 67 -42 c 260,27,28
 50 -42 50 -42 42 -26 c 5,29,30
 38 -32 38 -32 35 -32 c 4,31,32
 28 -32 28 -32 28 -2 c 4,33,34
 28 24 28 24 32.5 56.5 c 132,-1,35
 37 89 37 89 39 89 c 5,36,37
 40 88 40 88 40 78 c 6,38,-1
 55 358 l 5,39,40
 23 378 23 378 23 422 c 4,41,42
 23 452 23 452 31 459 c 4,43,44
 74 495 74 495 74 557 c 4,45,46
 74 579 74 579 69 604 c 5,47,48
 50 677 50 677 32 750 c 5,49,50
 32 752 32 752 32 754 c 4,51,52
 32 818 32 818 125 822 c 4,53,54
 126 822 l 4,55,56
 174 822 174 822 174 681 c 4,57,58
 174 671 174 671 174 651 c 132,-1,59
 174 631 174 631 174 622 c 4,60,61
 174 579 174 579 177 562 c 5,62,63
 286 628 286 628 401 692 c 4,64,65
 528 762 528 762 545 762 c 4,66,67
 578 762 578 762 600 716 c 5,0,1
EndSplineSet
Validated: 1
EndChar

StartChar: L
Encoding: 76 76 39
Width: 539
Flags: W
HStem: -17 86<149.367 278.021>
VStem: 17 103<102.451 314.214>
LayerCount: 2
Fore
SplineSet
563 120 m 5,0,1
 493 69 493 69 378.5 26 c 132,-1,2
 264 -17 264 -17 195 -17 c 4,3,4
 114 -17 114 -17 65.5 32 c 132,-1,5
 17 81 17 81 17 158 c 4,6,7
 17 177 17 177 20 198 c 4,8,9
 42 334 42 334 63 471 c 5,10,11
 92 647 92 647 120 736 c 5,12,13
 156 857 156 857 200 863 c 4,14,15
 203 863 203 863 206 863 c 4,16,17
 232 863 232 863 248 832 c 4,18,19
 260 809 260 809 260 793 c 4,20,21
 260 761 260 761 224 652 c 4,22,23
 172 497 172 497 157 439 c 4,24,25
 120 305 120 305 120 213 c 4,26,27
 120 69 120 69 198 69 c 4,28,29
 211 69 211 69 225 73 c 4,30,31
 283 87 283 87 390 146 c 4,32,33
 470 190 470 190 503 190 c 4,34,35
 506 190 506 190 509 190 c 4,36,37
 520 188 520 188 538 181 c 4,38,39
 552 176 552 176 563 176 c 5,40,-1
 563 120 l 5,0,1
EndSplineSet
Validated: 1
EndChar

StartChar: M
Encoding: 77 77 40
Width: 891
Flags: W
VStem: 753 96<258.796 599.493>
LayerCount: 2
Fore
SplineSet
847 484 m 5,0,1
 847 32 847 32 763 32 c 4,2,3
 743 32 743 32 725 52.5 c 132,-1,4
 707 73 707 73 707 94 c 4,5,6
 707 107 707 107 723 167 c 4,7,8
 743 239 743 239 747 259 c 5,9,10
 747 258 l 4,11,12
 750 307 l 4,13,14
 753 362 753 362 753 416 c 4,15,16
 753 518 753 518 742 604 c 5,17,18
 688 545 688 545 603 347 c 4,19,20
 500 106 500 106 464 44 c 5,21,22
 434 22 434 22 420 22 c 4,23,24
 404 22 404 22 389 44 c 5,25,26
 360 114 360 114 355 273 c 4,27,28
 348 467 348 467 321 594 c 5,29,30
 268 547 268 547 216 387 c 5,31,32
 175 249 175 249 135 112 c 5,33,34
 91 -31 91 -31 57 -46 c 4,35,36
 51 -49 51 -49 45 -49 c 4,37,38
 36 -49 36 -49 23.5 -42 c 132,-1,39
 11 -35 11 -35 9.5 -33.5 c 132,-1,40
 8 -32 8 -32 2.5 -15.5 c 132,-1,41
 -3 1 -3 1 -3 14 c 4,42,43
 -3 47 -3 47 61 228 c 4,44,45
 131 428 131 428 200 567 c 4,46,47
 287 744 287 744 337 744 c 4,48,49
 389 744 389 744 422 539 c 5,50,51
 437 406 437 406 453 273 c 5,52,53
 477 310 477 310 554 454 c 4,54,55
 635 605 635 605 676 669 c 4,56,57
 742 774 742 774 772 774 c 4,58,59
 849 774 849 774 849 554 c 4,60,61
 848 532 848 532 848 520 c 4,62,-1
 847 484 l 5,0,1
EndSplineSet
Validated: 1
EndChar

StartChar: N
Encoding: 78 78 41
Width: 685
Flags: W
HStem: 816 20G<520 575> 816 20G<520 575>
VStem: 564 92<172.298 576.776>
LayerCount: 2
Fore
SplineSet
656 406 m 4,0,1
 656 249 656 249 644 180 c 4,2,3
 620 46 620 46 546 46 c 4,4,5
 482 46 482 46 329 275 c 5,6,7
 251 400 251 400 172 526 c 5,8,9
 166 420 166 420 159 314 c 4,10,11
 152 204 152 204 133 154 c 4,12,13
 108 88 108 88 50 76 c 5,14,15
 26 95 26 95 26 116 c 4,16,17
 26 125 26 125 49.5 230.5 c 132,-1,18
 73 336 73 336 73 397 c 4,19,20
 73 497 73 497 61 563 c 4,21,22
 53 602 53 602 38 639 c 4,23,24
 26 668 26 668 26 681 c 4,25,26
 26 700 26 700 58 727 c 4,27,28
 87 751 87 751 106 756 c 4,29,30
 109 757 109 757 113 757 c 4,31,32
 157 757 157 757 238 625 c 5,33,34
 317 486 317 486 397 346 c 5,35,36
 490 186 490 186 540 166 c 5,37,38
 556 209 556 209 556 272 c 5,39,40
 564 328 564 328 564 399 c 4,41,42
 564 468 564 468 556 520 c 5,43,44
 556 532 556 532 521 652.5 c 132,-1,45
 486 773 486 773 486 786 c 4,46,47
 486 819 486 819 491 825 c 4,48,49
 499 836 499 836 541 836 c 4,50,51
 609 836 609 836 639 623 c 4,52,53
 656 506 656 506 656 406 c 4,0,1
EndSplineSet
Validated: 8388609
EndChar

StartChar: O
Encoding: 79 79 42
Width: 671
Flags: W
HStem: 2 90<171.502 311.939> 672 110<268.605 488.214>
VStem: 22 100<145.865 460.917> 552 100<399.707 589.184>
LayerCount: 2
Fore
SplineSet
652 502 m 4,0,1
 652 424 652 424 586 303 c 132,-1,2
 520 182 520 182 429 98 c 4,3,4
 324 2 324 2 232 2 c 4,5,6
 22 2 22 2 22 307 c 4,7,8
 22 472 22 472 107 612 c 4,9,10
 211 782 211 782 382 782 c 4,11,12
 501 782 501 782 576.5 705 c 132,-1,13
 652 628 652 628 652 502 c 4,0,1
552 497 m 4,14,15
 552 544 552 544 526 599 c 4,16,17
 491 672 491 672 432 672 c 4,18,19
 420 672 420 672 407.5 662 c 132,-1,20
 395 652 395 652 382 652 c 4,21,22
 366 652 366 652 360 658.5 c 132,-1,23
 354 665 354 665 348 672 c 5,24,25
 237 672 237 672 174 543 c 4,26,27
 122 435 122 435 122 292 c 4,28,29
 122 216 122 216 130 184 c 4,30,31
 153 92 153 92 230 92 c 4,32,33
 231 92 231 92 232 92 c 5,34,35
 340 95 340 95 448 237 c 4,36,37
 552 374 552 374 552 497 c 4,14,15
EndSplineSet
Validated: 1
EndChar

StartChar: P
Encoding: 80 80 43
Width: 601
Flags: W
HStem: 666 91<244.617 451.082>
VStem: 44 90<440.536 595.486> 60 96<-63.9434 169.087> 67 83<4.75793 289.586> 474 113<508.552 643.32>
LayerCount: 2
Fore
SplineSet
155 287 m 5,0,1
 150 249 150 249 150 202 c 4,2,3
 150 168 150 168 153 110.5 c 132,-1,4
 156 53 156 53 156 30 c 4,5,6
 156 -29 156 -29 141 -55 c 4,7,8
 125 -84 125 -84 86 -84 c 4,9,10
 82 -84 82 -84 78 -84 c 5,11,12
 60 -60 60 -60 60 4 c 4,13,14
 60 28 60 28 63.5 84.5 c 132,-1,15
 67 141 67 141 67 170 c 4,16,17
 67 280 67 280 24 319 c 5,18,19
 44 418 44 418 44 487 c 260,20,21
 44 556 44 556 24 643 c 5,22,23
 71 681 71 681 158 712 c 4,24,25
 258 748 258 748 364 756 c 4,26,27
 380 757 380 757 394 757 c 4,28,29
 434 757 434 757 463.5 746.5 c 132,-1,30
 493 736 493 736 499 736 c 5,31,32
 528 723 528 723 553 695 c 5,33,34
 568 676 568 676 582 658 c 5,35,36
 587 630 587 630 587 605 c 4,37,38
 587 455 587 455 429 371 c 5,39,40
 338 324 338 324 155 287 c 5,0,1
474 566 m 4,41,42
 474 622 474 622 451.5 644 c 132,-1,43
 429 666 429 666 369 666 c 4,44,45
 304 666 304 666 231 640 c 5,46,47
 134 604 134 604 134 546 c 4,48,49
 134 529 134 529 144 493 c 132,-1,50
 154 457 154 457 154 440 c 4,51,52
 154 414 154 414 135 398 c 5,53,-1
 287 398 l 5,54,55
 288 398 288 398 290 398 c 4,56,57
 332 398 332 398 399 452 c 4,58,59
 474 513 474 513 474 566 c 4,41,42
EndSplineSet
Validated: 8388609
EndChar

StartChar: Q
Encoding: 81 81 44
Width: 657
Flags: W
HStem: 615 102<428.109 487.374> 635 140<231.819 374.654> 645 130<280.354 409.502>
VStem: 13 100<221.58 483.55> 253 102<285.893 363.803> 357 93<-131.568 20.4903>
LayerCount: 2
Fore
SplineSet
633 485 m 4,0,1
 633 267 633 267 435 108 c 5,2,3
 433 99 433 99 433 89 c 4,4,5
 433 69 433 69 441.5 20.5 c 132,-1,6
 450 -28 450 -28 450 -53 c 4,7,8
 450 -117 450 -117 409 -155 c 5,9,10
 370 -144 370 -144 357 -101 c 4,11,12
 354 -91 354 -91 344 -17 c 4,13,14
 337 33 337 33 316 52 c 5,15,16
 300 51 300 51 284 51 c 4,17,18
 119 51 119 51 57 139 c 4,19,20
 13 202 13 202 13 345 c 4,21,22
 13 479 13 479 78 603 c 4,23,24
 169 775 169 775 343 775 c 4,25,26
 385 775 385 775 407 760 c 4,27,28
 409 759 409 759 434 732 c 4,29,30
 447 717 447 717 470 717 c 4,31,32
 474 717 474 717 478 717 c 4,33,34
 573 717 573 717 608 645 c 4,35,36
 633 594 633 594 633 485 c 4,0,1
553 505 m 4,37,38
 553 507 553 507 553 509 c 4,39,40
 553 554 553 554 488 635 c 5,41,42
 468 615 468 615 443 615 c 4,43,44
 422 615 422 615 402 630 c 132,-1,45
 382 645 382 645 378 645 c 4,46,47
 365 645 365 645 338 629 c 132,-1,48
 311 613 311 613 296 613 c 4,49,50
 289 613 289 613 283 615 c 4,51,52
 272 619 272 619 266.5 627 c 132,-1,53
 261 635 261 635 248 635 c 4,54,55
 184 635 184 635 143 511 c 4,56,57
 113 418 113 418 113 350 c 4,58,59
 113 260 113 260 142 205 c 4,60,61
 179 135 179 135 258 135 c 4,62,63
 272 135 272 135 280.5 141 c 132,-1,64
 289 147 289 147 292 147 c 5,65,-1
 292 212 l 5,66,67
 292 213 l 4,68,69
 292 226 292 226 273 264 c 4,70,71
 253 304 253 304 253 315 c 4,72,73
 253 328 253 328 264 349 c 4,74,75
 279 375 279 375 298 375 c 4,76,77
 334 375 334 375 355 340 c 4,78,79
 368 319 368 319 382.5 265.5 c 132,-1,80
 397 212 397 212 407 195 c 5,81,82
 465 229 465 229 503 307 c 4,83,84
 545 391 545 391 553 505 c 4,37,38
EndSplineSet
Validated: 8388609
EndChar

StartChar: R
Encoding: 82 82 45
Width: 640
Flags: W
HStem: 748 90<276.418 518.822>
VStem: 41 117<-2.10742 217.722> 65 93<98.8203 313> 72 99<467 698.787> 564 100<613.299 709.63>
LayerCount: 2
Fore
SplineSet
664 683 m 0,0,1
 664 682 664 682 664 681 c 0,2,3
 664 573 664 573 482 482 c 0,4,5
 359 420 359 420 224 391 c 1,6,7
 320 302 320 302 415 212 c 1,8,9
 594 36 594 36 594 -22 c 0,10,11
 594 -81 594 -81 556 -81 c 0,12,13
 542 -81 542 -81 529 -72 c 1,14,15
 371 97 l 0,16,17
 204 275 204 275 159 313 c 1,18,19
 158 296 158 296 158 264 c 2,20,-1
 158 182 l 1,21,22
 156 -30 156 -30 102 -42 c 1,23,-1
 67 -42 l 1,24,25
 41 -36 41 -36 41 47 c 0,26,27
 41 94 41 94 49 151 c 0,28,29
 57 204 57 204 65 224 c 1,30,-1
 65 350 l 1,31,32
 40 360 40 360 -15 389 c 1,33,-1
 -15 446 l 1,34,35
 11 470 11 470 42 470 c 0,36,37
 55 470 55 470 72 467 c 1,38,-1
 65 734 l 1,39,40
 83 780 83 780 175.5 809 c 128,-1,41
 268 838 268 838 399 838 c 0,42,43
 474 838 474 838 546 813 c 0,44,45
 663 772 663 772 664 683 c 0,0,1
564 663 m 0,46,47
 561 748 561 748 389 748 c 0,48,49
 348 748 348 748 265 723 c 0,50,51
 190 701 190 701 165 686 c 1,52,-1
 171 462 l 1,53,54
 267 480 267 480 380 521 c 0,55,56
 564 589 564 589 564 661 c 0,57,58
 564 662 564 662 564 663 c 0,46,47
EndSplineSet
Validated: 8388609
EndChar

StartChar: S
Encoding: 83 83 46
Width: 575
Flags: W
HStem: 30 100<136.962 390.051> 554 57<371.66 417.751> 690 100<192.106 396.712>
VStem: 15 110<529.814 639.618> 371 184<579 665>
LayerCount: 2
Fore
SplineSet
555 665 m 4,0,1
 555 630 555 630 512 595 c 4,2,3
 476 566 476 566 444.5 560 c 132,-1,4
 413 554 413 554 398 554 c 4,5,6
 371 554 371 554 371 579 c 4,7,8
 371 589 371 589 375 611 c 5,9,10
 418 622 418 622 435 655 c 5,11,12
 423 682 423 682 397 688 c 4,13,14
 388 690 388 690 350 690 c 4,15,16
 128 690 128 690 125 590 c 4,17,18
 125 589 125 589 125 588 c 4,19,20
 125 524 125 524 229 455 c 5,21,22
 328 394 328 394 428 334 c 5,23,24
 535 256 535 256 535 175 c 5,25,26
 534 100 534 100 418 59 c 4,27,28
 336 30 336 30 260 30 c 4,29,30
 -5 30 -5 30 -5 150 c 4,31,32
 -5 182 -5 182 -2 188 c 4,33,34
 9 210 9 210 51 210 c 4,35,36
 53 210 53 210 55 210 c 4,37,38
 80 209 80 209 97 189 c 4,39,40
 120 160 120 160 139 150 c 4,41,42
 179 130 179 130 260 130 c 4,43,44
 334 130 334 130 343 132 c 4,45,46
 378 138 378 138 425 176 c 5,47,48
 402 238 402 238 293 310 c 4,49,50
 116 426 116 426 108 433 c 4,51,52
 15 510 15 510 15 595 c 4,53,54
 15 703 15 703 155 756 c 4,55,56
 246 791 246 791 346 791 c 4,57,58
 363 791 363 791 380 790 c 4,59,60
 440 787 440 787 492 756 c 4,61,62
 555 719 555 719 555 665 c 4,0,1
EndSplineSet
Validated: 1
EndChar

StartChar: T
Encoding: 84 84 47
Width: 623
Flags: W
HStem: 807 89<458.567 630.535>
LayerCount: 2
Fore
SplineSet
437 768 m 4,0,1
 380 660 380 660 350 488 c 4,2,3
 350 487 350 487 307 177 c 4,4,5
 302 137 302 137 302 99 c 4,6,7
 302 70 302 70 305.5 32.5 c 132,-1,8
 309 -5 309 -5 309 -15 c 4,9,10
 309 -59 309 -59 261 -77 c 5,11,-1
 217 -77 l 5,12,13
 195 -17 195 -17 195 13 c 5,14,15
 218 229 218 229 250 409 c 5,16,17
 273 529 273 529 295 649 c 5,18,-1
 295 716 l 5,19,20
 292 719 292 719 288 723 c 5,21,22
 290 723 290 723 270 723 c 4,23,24
 255 723 255 723 144 688 c 4,25,26
 45 657 45 657 17 647 c 4,27,28
 11 645 11 645 5 645 c 4,29,30
 -13 645 -13 645 -26.5 661 c 132,-1,31
 -40 677 -40 677 -40 698 c 4,32,33
 -40 710 -40 710 -36 720 c 4,34,35
 -17 760 -17 760 200 827 c 4,36,37
 424 896 424 896 554 896 c 4,38,39
 645 896 645 896 645 855 c 4,40,41
 645 852 645 852 645 850 c 5,42,43
 631 816 631 816 583 807 c 5,44,45
 541 803 541 803 498 798 c 4,46,47
 450 792 450 792 437 768 c 4,0,1
EndSplineSet
Validated: 1
EndChar

StartChar: U
Encoding: 85 85 48
Width: 519
Flags: W
HStem: 60 104<150.013 266.451>
VStem: 21 101<192.484 475.128> 398 104<414.957 698.193>
LayerCount: 2
Fore
SplineSet
502 560 m 4,0,1
 502 484 502 484 469 374 c 4,2,3
 429 243 429 243 365 161 c 4,4,5
 286 60 286 60 187 60 c 4,6,7
 97 60 97 60 53 156 c 4,8,9
 21 226 21 226 21 318 c 4,10,11
 21 333 21 333 22 345 c 4,12,13
 28 425 28 425 34 506 c 5,14,15
 43 608 43 608 61 658 c 4,16,17
 83 720 83 720 122 720 c 4,18,19
 124 720 124 720 127 720 c 4,20,21
 182 714 182 714 182 665 c 4,22,23
 182 652 182 652 152 514.5 c 132,-1,24
 122 377 122 377 122 365 c 4,25,26
 124 253 124 253 127 236 c 4,27,28
 141 165 141 165 200 164 c 4,29,30
 202 164 202 164 203 164 c 4,31,32
 301 164 301 164 358 334 c 4,33,34
 398 454 398 454 398 540 c 4,35,36
 398 551 398 551 385 637 c 132,-1,37
 372 723 372 723 372 735 c 4,38,39
 372 750 372 750 388.5 765 c 132,-1,40
 405 780 405 780 422 780 c 4,41,42
 465 780 465 780 487 677 c 4,43,44
 502 611 502 611 502 560 c 4,0,1
EndSplineSet
Validated: 1
EndChar

StartChar: V
Encoding: 86 86 49
Width: 641
Flags: W
LayerCount: 2
Fore
SplineSet
649 726 m 0,0,1
 649 685 649 685 583 497 c 0,2,3
 510 288 510 288 435 144 c 0,4,5
 340 -40 340 -40 280 -40 c 0,6,7
 217 -40 217 -40 140 156 c 0,8,9
 88 290 88 290 32 512 c 0,10,11
 -11 680 -11 680 -11 681 c 0,12,13
 -11 696 -11 696 5.5 712.5 c 128,-1,14
 22 729 22 729 39 736 c 0,15,16
 51 741 51 741 61 741 c 0,17,18
 98 741 98 741 119 653 c 1,19,20
 146 534 146 534 172 415 c 1,21,22
 219 231 219 231 298 70 c 1,23,24
 364 167 364 167 425 346 c 1,25,26
 468 486 468 486 511 626 c 0,27,28
 553 760 553 760 581 775 c 1,29,-1
 636 775 l 1,30,31
 649 763 649 763 649 726 c 0,0,1
EndSplineSet
Validated: 1
EndChar

StartChar: W
Encoding: 87 87 50
Width: 810
Flags: W
VStem: 22 110<435.413 756.914>
LayerCount: 2
Fore
SplineSet
792 860 m 4,0,1
 780 834 780 834 759 587 c 5,2,3
 734 307 734 307 709 180 c 5,4,5
 671 -7 671 -7 613 -7 c 4,6,7
 608 -7 608 -7 602 -5 c 4,8,9
 547 11 547 11 473 192 c 5,10,11
 439 284 439 284 406 375 c 5,12,13
 376 333 376 333 332 213 c 4,14,15
 284 83 284 83 259 39 c 4,16,17
 215 -35 215 -35 164 -35 c 4,18,19
 160 -35 160 -35 156 -35 c 5,20,21
 60 -6 60 -6 32 342 c 4,22,23
 22 464 22 464 22 710 c 4,24,25
 22 781 22 781 65 781 c 4,26,27
 75 781 75 781 87 775 c 4,28,29
 132 752 132 752 132 691 c 6,30,-1
 132 339 l 6,31,32
 132 332 132 332 137 291.5 c 132,-1,33
 142 251 142 251 142 235 c 4,34,35
 142 216 142 216 152 172 c 4,36,37
 163 124 163 124 177 95 c 5,38,39
 236 172 236 172 293 359 c 4,40,41
 347 539 347 539 396 595 c 5,42,43
 397 595 397 595 398 595 c 4,44,45
 432 595 432 595 461 517 c 5,46,47
 488 424 488 424 516 332 c 4,48,49
 554 204 554 204 597 135 c 5,50,51
 643 202 643 202 648 391 c 4,52,53
 652 551 652 551 655 710 c 5,54,55
 668 877 668 877 736 915 c 5,56,57
 793 886 793 886 793 867 c 4,58,59
 793 863 793 863 792 860 c 4,0,1
EndSplineSet
Validated: 1
EndChar

StartChar: X
Encoding: 88 88 51
Width: 658
Flags: W
HStem: 824 20G<106.5 150>
VStem: 227 120<383.75 444.819>
LayerCount: 2
Fore
SplineSet
636 687 m 5,0,1
 561 624 561 624 485 562 c 5,2,3
 347 443 347 443 347 399 c 4,4,5
 347 347 347 347 442 151 c 5,6,7
 490 55 490 55 537 -41 c 5,8,9
 537 -44 537 -44 537 -46 c 4,10,11
 536 -75 536 -75 526 -85 c 4,12,13
 514 -96 514 -96 504 -106 c 5,14,15
 496 -108 496 -108 489 -108 c 4,16,17
 449 -108 449 -108 410 -28 c 4,18,19
 391 10 391 10 343 143 c 4,20,21
 302 259 302 259 273 303 c 5,22,23
 242 299 242 299 201 226 c 5,24,25
 166 160 166 160 131 94 c 5,26,27
 94 33 94 33 63 33 c 4,28,29
 60 33 60 33 57 34 c 4,30,31
 45 37 45 37 34 41.5 c 132,-1,32
 23 46 23 46 18 46 c 5,33,-1
 18 118 l 6,34,35
 18 124 18 124 122.5 265.5 c 132,-1,36
 227 407 227 407 227 424 c 4,37,38
 227 456 227 456 175 578 c 5,39,40
 120 704 120 704 97 704 c 4,41,42
 83 704 83 704 71.5 707 c 132,-1,43
 60 710 60 710 57 710 c 5,44,45
 57 796 57 796 73 822 c 4,46,47
 86 844 86 844 127 844 c 4,48,49
 173 844 173 844 241 687 c 5,50,51
 277 595 277 595 313 504 c 5,52,53
 378 583 378 583 443 661 c 5,54,55
 535 764 535 764 597 764 c 4,56,57
 612 764 612 764 622.5 758.5 c 132,-1,58
 633 753 633 753 636 753 c 5,59,-1
 636 687 l 5,0,1
EndSplineSet
Validated: 1
EndChar

StartChar: Y
Encoding: 89 89 52
Width: 623
Flags: W
HStem: 777 20G<66 94.5>
LayerCount: 2
Fore
SplineSet
618 712 m 0,0,1
 618 651 618 651 521 454 c 1,2,3
 432 276 432 276 324 105 c 0,4,5
 212 -74 212 -74 173 -93 c 1,6,7
 137 -85 137 -85 132.5 -78.5 c 128,-1,8
 128 -72 128 -72 128 -23 c 0,9,10
 128 5 128 5 172 77 c 128,-1,11
 216 149 216 149 216 162 c 0,12,13
 216 165 216 165 215 167 c 0,14,15
 167 238 167 238 100 412 c 0,16,17
 20 621 20 621 20 733 c 0,18,19
 20 749 20 749 22 762 c 1,20,21
 55 797 55 797 77 797 c 1,22,23
 112 774 112 774 141 665 c 128,-1,24
 170 556 170 556 199 446 c 1,25,26
 239 308 239 308 294 233 c 1,27,28
 340 298 340 298 430 523 c 0,29,30
 511 723 511 723 551 756 c 1,31,-1
 605 756 l 1,32,33
 618 744 618 744 618 712 c 0,0,1
EndSplineSet
Validated: 1
EndChar

StartChar: Z
Encoding: 90 90 53
Width: 656
Flags: W
HStem: -42 100<141.85 313.796> 40 77<565.437 615.215> 784 20G<588.5 605>
LayerCount: 2
Fore
SplineSet
645 703 m 0,0,1
 645 595 645 595 544 469 c 0,2,3
 473 381 473 381 329 259 c 0,4,5
 154 112 154 112 135 92 c 1,6,7
 147 58 147 58 195 58 c 0,8,9
 208 58 208 58 380.5 93 c 128,-1,10
 553 128 553 128 565 128 c 0,11,12
 579 128 579 128 589.5 122.5 c 128,-1,13
 600 117 600 117 604 117 c 1,14,15
 620 92 620 92 620 71 c 0,16,17
 620 48 620 48 604 40 c 1,18,19
 522 11 522 11 400 -14 c 0,20,21
 262 -42 262 -42 175 -42 c 0,22,23
 111 -42 111 -42 66 -23 c 0,24,25
 6 3 6 3 5 58 c 0,26,27
 5 59 l 0,28,29
 5 104 5 104 137 222 c 0,30,31
 263 335 263 335 388 448 c 1,32,33
 527 585 527 585 536 670 c 1,34,35
 533 678 533 678 510 678 c 0,36,37
 498 678 498 678 334 608 c 128,-1,38
 170 538 170 538 160 538 c 0,39,40
 139 538 139 538 118 557 c 128,-1,41
 97 576 97 576 95 593 c 0,42,43
 95 595 95 595 95 596 c 0,44,45
 95 642 95 642 202 686 c 0,46,47
 270 713 270 713 422 752 c 0,48,49
 556 786 556 786 575 798 c 0,50,51
 584 804 584 804 593 804 c 0,52,53
 617 804 617 804 633 759 c 0,54,55
 645 725 645 725 645 703 c 0,0,1
EndSplineSet
Validated: 8388609
EndChar

StartChar: a
Encoding: 97 97 54
Width: 565
Flags: W
HStem: 831 20G<296 325>
VStem: -27 117<-0.437012 96.1086>
LayerCount: 2
Fore
SplineSet
563 -43 m 0,0,1
 563 -58 563 -58 541 -102 c 1,2,-1
 475 -102 l 1,3,4
 442 -56 442 -56 429 54 c 128,-1,5
 416 164 416 164 386 207 c 1,6,7
 241 163 241 163 120 104 c 1,8,9
 98 92 98 92 90 44 c 0,10,11
 81 -9 81 -9 76 -14 c 0,12,13
 68 -23 68 -23 38 -23 c 0,14,15
 7 -23 7 -23 -12 -1 c 0,16,17
 -27 17 -27 17 -27 37 c 0,18,19
 -27 79 -27 79 42 254 c 1,20,21
 81 349 81 349 119 443 c 1,22,23
 207 696 207 696 216 718 c 0,24,25
 272 851 272 851 320 851 c 0,26,27
 330 851 330 851 340 846 c 1,28,29
 376 783 376 783 472 377 c 0,30,31
 563 -7 563 -7 563 -43 c 0,0,1
372 299 m 1,32,33
 365 383 365 383 345 489 c 0,34,35
 324 601 324 601 298 657 c 1,36,37
 298 656 298 656 298 655 c 128,-1,38
 298 654 298 654 298 653 c 0,39,-1
 298 652 l 0,40,41
 298 651 l 0,42,43
 298 633 298 633 202 438 c 0,44,45
 146 325 146 325 144 297 c 0,46,-1
 144 291 l 1,47,-1
 144 238 l 1,48,49
 258 282 258 282 372 299 c 1,32,33
EndSplineSet
Validated: 1
EndChar

StartChar: b
Encoding: 98 98 55
Width: 648
Flags: W
HStem: 757 100<228.094 375.688>
VStem: 78 103<507.996 640.729> 78 80<161.224 331.066>
LayerCount: 2
Fore
SplineSet
658 337 m 0,0,1
 658 249 658 249 543 155 c 0,2,3
 450 79 450 79 311 20 c 0,4,5
 186 -33 186 -33 128 -33 c 0,6,7
 87 -33 87 -33 61 -8 c 0,8,9
 38 13 38 13 38 37 c 0,10,11
 38 44 38 44 58 107.5 c 128,-1,12
 78 171 78 171 78 192 c 0,13,14
 78 267 78 267 66 308 c 0,15,16
 59 331 59 331 43 352 c 0,17,18
 30 370 30 370 28 387 c 0,19,20
 28 390 28 390 28 393 c 0,21,22
 28 412 28 412 39 427 c 1,23,24
 63 455 63 455 66 460 c 0,25,26
 78 484 78 484 78 525 c 0,27,28
 78 531 78 531 78 537 c 0,29,30
 74 633 74 633 65 641 c 1,31,32
 32 649 32 649 -1 658 c 1,33,-1
 -1 713 l 1,34,35
 40 767 40 767 127 809 c 0,36,37
 228 857 228 857 333 857 c 0,38,39
 414 857 414 857 452 837 c 0,40,41
 498 812 498 812 498 752 c 0,42,43
 498 701 498 701 438 629 c 0,44,45
 393 576 393 576 348 523 c 1,46,47
 404 511 404 511 460 499 c 0,48,49
 547 479 547 479 593 448 c 0,50,51
 658 405 658 405 658 337 c 0,0,1
377 744 m 1,52,53
 352 757 352 757 308 757 c 0,54,55
 270 757 270 757 245 745 c 1,56,57
 207 724 207 724 169 704 c 1,58,59
 181 616 181 616 181 507 c 1,60,61
 285 571 285 571 325 613 c 0,62,63
 377 669 377 669 377 735 c 0,64,65
 377 739 377 739 377 744 c 1,52,53
558 344 m 1,66,67
 529 371 529 371 474 394 c 128,-1,68
 419 417 419 417 388 417 c 0,69,70
 313 417 313 417 246 395 c 0,71,72
 158 365 158 365 158 312 c 0,73,74
 158 299 158 299 171 217 c 0,75,76
 186 122 186 122 190 88 c 1,77,78
 289 109 289 109 390 166 c 0,79,80
 528 245 528 245 558 344 c 1,66,67
EndSplineSet
Validated: 8388609
EndChar

StartChar: c
Encoding: 99 99 56
Width: 553
Flags: W
HStem: 7 100<233.53 386.289> 707 110<199.225 298.572>
VStem: 13 90<297.838 550.834> 333 110<583.579 672.018> 512 40<212.676 254.764>
LayerCount: 2
Fore
SplineSet
543 177 m 0,0,1
 522 106 522 106 434 53 c 0,2,3
 357 7 357 7 298 7 c 0,4,5
 296 7 296 7 295 7 c 0,6,7
 293 7 293 7 290 7 c 0,8,9
 288 7 288 7 285 7 c 0,10,11
 140 7 140 7 65 193 c 0,12,13
 13 321 13 321 13 457 c 0,14,15
 13 568 13 568 76 680 c 0,16,17
 153 817 153 817 273 817 c 0,18,19
 356 817 356 817 405 735 c 0,20,21
 443 672 443 672 443 607 c 0,22,23
 443 580 443 580 422 531 c 0,24,25
 396 470 396 470 368 467 c 0,26,27
 359 466 359 466 351 466 c 0,28,29
 284 468 284 468 284 519 c 0,30,31
 284 538 284 538 293 562 c 0,32,33
 296 570 296 570 316 588 c 0,34,35
 333 603 333 603 333 617 c 0,36,37
 333 649 333 649 306.5 678 c 128,-1,38
 280 707 280 707 253 707 c 0,39,40
 187 707 187 707 141 596 c 0,41,42
 103 505 103 505 103 431 c 0,43,44
 103 429 103 429 103 427 c 0,45,46
 103 323 103 323 158 221 c 1,47,48
 218 107 218 107 303 107 c 0,49,50
 366 107 366 107 425 146.5 c 128,-1,51
 484 186 484 186 512 247 c 1,52,53
 526 255 526 255 535 255 c 0,54,55
 552 255 552 255 552 229 c 0,56,57
 552 210 552 210 543 177 c 0,0,1
EndSplineSet
Validated: 1
EndChar

StartChar: d
Encoding: 100 100 57
Width: 611
Flags: W
HStem: 711 110<145.068 313.296>
LayerCount: 2
Fore
SplineSet
595 481 m 0,0,1
 596 473 596 473 596 464 c 0,2,3
 596 373 596 373 509 243 c 0,4,5
 421 111 421 111 298 15 c 0,6,7
 177 -80 177 -80 97 -80 c 0,8,9
 91 -80 91 -80 85 -79 c 0,10,11
 71 -78 71 -78 55.5 -73 c 128,-1,12
 40 -68 40 -68 36 -68 c 1,13,-1
 36 -2 l 1,14,15
 37 0 37 0 83 29 c 1,16,17
 118 53 118 53 118 72 c 0,18,19
 118 78 118 78 115 84 c 1,20,-1
 35 671 l 1,21,22
 20 724 20 724 20 753 c 0,23,24
 20 801 20 801 65 813 c 0,25,26
 91 819 91 819 205 821 c 0,27,28
 207 821 l 0,29,30
 318 821 318 821 444 724 c 1,31,32
 582 616 582 616 595 481 c 0,0,1
495 451 m 0,33,34
 491 574 491 574 401 644 c 0,35,36
 316 711 316 711 185 711 c 0,37,38
 153 711 153 711 142 688 c 0,39,40
 135 673 135 673 135 636 c 0,41,42
 135 612 135 612 160 418 c 0,43,44
 187 206 187 206 207 92 c 1,45,46
 298 114 298 114 395 227 c 0,47,48
 495 344 495 344 495 445 c 0,49,50
 495 448 495 448 495 451 c 0,33,34
EndSplineSet
Validated: 1
EndChar

StartChar: e
Encoding: 101 101 58
Width: 620
Flags: W
HStem: 29 100<151.25 328.547>
LayerCount: 2
Fore
SplineSet
653 813 m 5,0,1
 636 777 636 777 490 760 c 4,2,3
 315 739 315 739 244 699 c 4,4,5
 131 634 131 634 131 486 c 4,6,7
 131 472 131 472 132 456 c 5,8,9
 138 450 138 450 144.5 444.5 c 132,-1,10
 151 439 151 439 168 439 c 4,11,12
 170 439 170 439 323 489 c 132,-1,13
 476 539 476 539 530 539 c 5,14,15
 543 529 543 529 543 511 c 4,16,17
 543 508 543 508 543 504 c 4,18,19
 535 446 535 446 419 412 c 5,20,21
 316 386 316 386 212 360 c 5,22,23
 112 326 112 326 112 263 c 4,24,25
 112 258 112 258 113 254 c 4,26,27
 126 129 126 129 203 129 c 4,28,29
 249 129 249 129 334 150 c 4,30,31
 431 174 431 174 446 199 c 5,32,-1
 516 185 l 5,33,34
 518 179 518 179 518 173 c 4,35,36
 518 118 518 118 387 70 c 4,37,38
 277 29 277 29 208 29 c 4,39,40
 116 29 116 29 60 98 c 5,41,42
 12 159 12 159 12 239 c 4,43,44
 12 261 12 261 16 280 c 4,45,46
 24 316 24 316 34.5 462 c 132,-1,47
 45 608 45 608 58 673 c 4,48,49
 80 776 80 776 123 779 c 4,50,51
 135 780 135 780 140 774.5 c 132,-1,52
 145 769 145 769 158 769 c 4,53,54
 173 769 173 769 299 814 c 132,-1,55
 425 859 425 859 488 859 c 4,56,57
 498 859 498 859 523.5 862.5 c 132,-1,58
 549 866 549 866 563 866 c 4,59,60
 622 866 622 866 653 813 c 5,0,1
EndSplineSet
Validated: 1
EndChar

StartChar: f
Encoding: 102 102 59
Width: 536
Flags: W
HStem: 815 121<382.848 554.333> 858 20G<64.5 98.5>
LayerCount: 2
Fore
SplineSet
568 840 m 5,0,1
 543 818 543 818 523 818 c 4,2,3
 517 818 517 818 505 816.5 c 132,-1,4
 493 815 493 815 487 815 c 4,5,6
 467 815 467 815 452 828 c 4,7,8
 450 830 450 830 444 830 c 4,9,10
 416 830 416 830 304 790 c 5,11,12
 163 739 163 739 148 703 c 5,13,14
 154 685 154 685 157 633.5 c 132,-1,15
 160 582 160 582 167 562 c 5,16,17
 177 528 177 528 203 528 c 4,18,19
 262 528 262 528 322 558 c 4,20,21
 376 585 376 585 409 585 c 4,22,23
 449 585 449 585 497 547 c 5,24,-1
 178 368 l 5,25,26
 178 359 178 359 198 211.5 c 132,-1,27
 218 64 218 64 218 48 c 4,28,29
 218 37 218 37 213 9 c 132,-1,30
 208 -19 208 -19 208 -29 c 5,31,32
 195 -42 195 -42 173 -42 c 4,33,34
 124 -42 124 -42 100 130 c 4,35,36
 89 209 89 209 72 482 c 4,37,38
 58 707 58 707 38 773 c 4,39,40
 36 780 36 780 36 794 c 4,41,42
 36 878 36 878 93 878 c 4,43,44
 104 878 104 878 125.5 858 c 132,-1,45
 147 838 147 838 158 838 c 4,46,47
 171 838 171 838 293.5 883 c 132,-1,48
 416 928 416 928 428 928 c 4,49,50
 431 928 431 928 453 932 c 132,-1,51
 475 936 475 936 491 936 c 4,52,53
 545 936 545 936 568 897 c 5,54,55
 579 885 579 885 579 871 c 4,56,57
 579 858 579 858 568 840 c 5,0,1
EndSplineSet
Validated: 8388609
EndChar

StartChar: g
Encoding: 103 103 60
Width: 740
Flags: W
HStem: 215 110<311.423 483.493> 695 110<430.204 605.662>
VStem: 15 110<87.5037 319.696> 504 221<579 690> 505 90<86.6716 192.974>
LayerCount: 2
Fore
SplineSet
725 690 m 0,0,1
 725 648 725 648 671 594.5 c 128,-1,2
 617 541 617 541 580 535 c 0,3,4
 558 532 558 532 546 532 c 0,5,6
 504 532 504 532 504 579 c 0,7,8
 504 589 504 589 506 603 c 1,9,10
 509 614 509 614 531 616 c 0,11,12
 561 619 561 619 573 626 c 0,13,14
 597 639 597 639 606 679 c 1,15,16
 591 695 591 695 545 695 c 0,17,18
 410 694 410 694 306 599 c 0,19,20
 220 520 220 520 169 393 c 0,21,22
 125 284 125 284 125 195 c 0,23,24
 125 123 125 123 153 75 c 0,25,26
 189 11 189 11 265 5 c 0,27,28
 276 4 276 4 286 4 c 0,29,30
 350 4 350 4 415 35 c 0,31,32
 505 77 505 77 505 150 c 0,33,34
 505 215 505 215 385 215 c 0,35,36
 377 215 377 215 333.5 200 c 128,-1,37
 290 185 290 185 259 185 c 1,38,39
 236 226 236 226 236 254 c 1,40,41
 278 299 278 299 305 311 c 0,42,43
 338 325 338 325 415 325 c 0,44,45
 478 325 478 325 533 289 c 1,46,47
 595 247 595 247 595 185 c 0,48,49
 595 57 595 57 480 -16 c 0,50,51
 388 -75 388 -75 275 -75 c 0,52,53
 149 -75 149 -75 75 13 c 0,54,55
 15 85 15 85 15 176 c 0,56,57
 15 183 15 183 15 190 c 0,58,59
 23 333 23 333 99 476.5 c 128,-1,60
 175 620 175 620 292 709 c 1,61,62
 420 805 420 805 560 805 c 0,63,64
 613 805 613 805 663 779 c 0,65,66
 725 746 725 746 725 690 c 0,0,1
EndSplineSet
Validated: 8388609
EndChar

StartChar: h
Encoding: 104 104 61
Width: 636
Flags: W
HStem: 303 54<376.498 466.584> 770 20G<450 487.5>
LayerCount: 2
Fore
SplineSet
585 218 m 0,0,1
 586 201 586 201 586 185 c 0,2,3
 586 49 586 49 514 10 c 0,4,5
 496 1 496 1 485 1 c 0,6,7
 471 1 471 1 464 17 c 0,8,9
 464 18 464 18 454 55 c 1,10,11
 462 107 462 107 487 218 c 1,12,13
 472 367 472 367 463 438 c 0,14,15
 444 589 444 589 424 646 c 1,16,17
 425 651 425 651 425 656 c 0,18,19
 425 669 425 669 414.5 697.5 c 128,-1,20
 404 726 404 726 404 740 c 0,21,22
 404 763 404 763 427 777 c 1,23,24
 443 790 443 790 457 790 c 0,25,26
 518 790 518 790 553 557 c 0,27,28
 570 448 570 448 585 218 c 0,0,1
463 303 m 1,29,30
 312 269 312 269 163 242 c 1,31,32
 163 240 163 240 163 237 c 0,33,34
 163 199 163 199 178 118 c 0,35,36
 194 31 194 31 194 25 c 0,37,38
 194 12 194 12 186 -2 c 0,39,40
 173 -26 173 -26 172 -29 c 1,41,42
 154 -29 154 -29 131 -23.5 c 128,-1,43
 108 -18 108 -18 106 -18 c 1,44,45
 76 134 76 134 42 339 c 0,46,47
 -6 628 -6 628 -6 705 c 0,48,49
 -6 728 -6 728 18 739 c 1,50,51
 37 743 37 743 54 750 c 0,52,53
 59 752 59 752 64 752 c 0,54,55
 97 752 97 752 110 668 c 0,56,57
 116 630 116 630 126 494 c 0,58,59
 134 384 134 384 152 350 c 1,60,61
 282 372 282 372 376 372 c 0,62,63
 389 372 389 372 399 370 c 0,64,65
 445 361 445 361 459 357 c 128,-1,66
 473 353 473 353 473 347 c 0,67,68
 473 346 473 346 468.5 332 c 128,-1,69
 464 318 464 318 463 303 c 1,29,30
EndSplineSet
Validated: 1
EndChar

StartChar: i
Encoding: 105 105 62
Width: 283
Flags: W
VStem: 65 130<345.841 582.72> 98 97<66.9053 351.935>
LayerCount: 2
Fore
SplineSet
195 80 m 5,0,1
 171 57 171 57 150 57 c 4,2,3
 120 57 120 57 98 90 c 5,4,5
 94 199 94 199 79 409 c 4,6,7
 65 601 65 601 65 637 c 4,8,9
 65 674 65 674 77 696 c 5,10,11
 92 704 92 704 108.5 704 c 132,-1,12
 125 704 125 704 143 696 c 5,13,14
 189 558 189 558 195 413 c 4,15,16
 199 317 199 317 199 233.5 c 132,-1,17
 199 150 199 150 195 80 c 5,0,1
EndSplineSet
Validated: 8388609
EndChar

StartChar: j
Encoding: 106 106 63
Width: 590
Flags: W
HStem: 16 89<266.616 396.986> 682 104<336.672 534.154>
VStem: 444 90<168.316 423.294>
LayerCount: 2
Fore
SplineSet
574 709 m 1,0,1
 568 701 568 701 561.5 693.5 c 128,-1,2
 555 686 555 686 539 686 c 0,3,4
 527 686 527 686 521 682 c 128,-1,5
 515 678 515 678 502 678 c 0,6,7
 495 678 495 678 486.5 680 c 128,-1,8
 478 682 478 682 475 682 c 0,9,10
 465 682 465 682 454 670 c 1,11,12
 487 625 487 625 512 471 c 0,13,14
 534 339 534 339 534 251 c 0,15,16
 534 145 534 145 481 80.5 c 128,-1,17
 428 16 428 16 339 16 c 0,18,19
 303 16 303 16 228 42 c 0,20,21
 137 74 137 74 79 119 c 0,22,23
 4 178 4 178 4 246 c 0,24,25
 4 249 4 249 3 260.5 c 128,-1,26
 2 272 2 272 2 279 c 0,27,28
 2 327 2 327 49 336 c 1,29,30
 77 334 77 334 108 283 c 0,31,32
 153 209 153 209 181 182 c 0,33,34
 242 123 242 123 339 106 c 0,35,36
 345 105 345 105 351 105 c 0,37,38
 399 105 399 105 425 174 c 0,39,40
 444 223 444 223 444 271 c 0,41,42
 444 411 444 411 337 676 c 1,43,44
 283 656 283 656 254 656 c 0,45,46
 250 656 250 656 242 655 c 0,47,48
 235 655 235 655 232 655 c 0,49,50
 204 655 204 655 194 717 c 1,51,52
 219 786 219 786 459 786 c 0,53,54
 512 786 512 786 563 744 c 1,55,56
 563 739 563 739 568.5 726.5 c 128,-1,57
 574 714 574 714 574 709 c 1,0,1
EndSplineSet
Validated: 1
EndChar

StartChar: k
Encoding: 107 107 64
Width: 590
Flags: W
HStem: 835 20G<107 134>
VStem: 36 121<-111.677 222.472 630.077 831.624> 61 97<522.7 776.651>
LayerCount: 2
Fore
SplineSet
578 699 m 5,0,1
 570 634 570 634 494 581 c 4,2,3
 446 548 446 548 330 497 c 4,4,5
 210 445 210 445 168 417 c 5,6,7
 277 353 277 353 385 290 c 5,8,9
 558 179 558 179 558 109 c 4,10,11
 558 106 558 106 558 103 c 4,12,13
 556 88 556 88 542.5 69 c 132,-1,14
 529 50 529 50 514 43 c 5,15,-1
 470 43 l 5,16,17
 424 116 424 116 332 191 c 4,18,19
 249 258 249 258 161 302 c 5,20,21
 154 275 154 275 148 219 c 4,22,23
 142 159 142 159 138 137 c 5,24,25
 157 10 157 10 157 -64 c 4,26,27
 157 -122 157 -122 145 -122 c 4,28,29
 141 -122 141 -122 136 -116 c 5,30,-1
 61 -116 l 5,31,32
 36 -88 36 -88 36 9 c 4,33,34
 36 83 36 83 54 228 c 4,35,36
 59 273 59 273 59 307 c 4,37,38
 59 354 59 354 49 381 c 4,39,40
 43 396 43 396 29 413 c 4,41,42
 18 426 18 426 18 438 c 260,43,44
 18 450 18 450 35 469.5 c 132,-1,45
 52 489 52 489 54 499 c 4,46,47
 61 532 61 532 61 573 c 4,48,49
 61 621 61 621 49.5 697.5 c 132,-1,50
 38 774 38 774 38 793 c 4,51,52
 38 833 38 833 98 853 c 4,53,54
 104 855 104 855 110 855 c 4,55,56
 158 855 158 855 158 674 c 6,57,-1
 158 616 l 6,58,59
 158 544 158 544 165 522 c 5,60,61
 227 553 227 553 385 643 c 4,62,63
 525 723 525 723 528 723 c 4,64,65
 554 723 554 723 578 699 c 5,0,1
EndSplineSet
Validated: 8388609
EndChar

StartChar: l
Encoding: 108 108 65
Width: 473
Flags: W
HStem: -55 108<153.327 356.764>
VStem: 24 92<91.2531 285.13>
LayerCount: 2
Fore
SplineSet
468 38 m 5,0,1
 436 -16 436 -16 380 -38 c 5,2,3
 333 -55 333 -55 256 -55 c 4,4,5
 154 -55 154 -55 93 -15 c 4,6,7
 24 29 24 29 24 114 c 4,8,9
 24 127 24 127 26 140 c 4,10,11
 41 285 41 285 57.5 432.5 c 132,-1,12
 74 580 74 580 94 645 c 4,13,14
 118 725 118 725 159 725 c 4,15,16
 160 725 160 725 161 725 c 5,17,18
 181 723 181 723 198.5 702 c 132,-1,19
 216 681 216 681 216 660 c 4,20,21
 216 647 216 647 166 417 c 132,-1,22
 116 187 116 187 116 175 c 4,23,24
 116 53 116 53 225 53 c 4,25,26
 247 53 247 53 284 59 c 5,27,28
 303 61 303 61 406 87 c 5,29,30
 438 87 438 87 447 80 c 132,-1,31
 456 73 456 73 468 38 c 5,0,1
EndSplineSet
Validated: 1
EndChar

StartChar: m
Encoding: 109 109 66
Width: 912
Flags: W
HStem: 672 115<287.612 339.562>
VStem: 356 100<284 586.188> 358 91<288.781 663.207> 721 79<59.5366 104.125> 771 100<265.072 648.715>
LayerCount: 2
Fore
SplineSet
871 517 m 0,0,1
 871 298 871 298 858 220 c 0,2,3
 847 154 847 154 800 58 c 1,4,5
 782 52 782 52 768 52 c 0,6,7
 721 52 721 52 721 122 c 0,8,9
 721 126 721 126 734 179 c 0,10,11
 749 241 749 241 758 310 c 0,12,13
 771 413 771 413 771 542 c 0,14,15
 771 585 771 585 754 652 c 1,16,17
 672 600 672 600 605 439 c 1,18,19
 556 307 556 307 507 175 c 1,20,21
 453 47 453 47 395 47 c 0,22,23
 394 47 l 1,24,25
 392 47 392 47 391 47 c 0,26,27
 389 47 389 47 387 47 c 0,28,29
 354 47 354 47 354 201 c 0,30,31
 354 233 354 233 356 312.5 c 128,-1,32
 358 392 358 392 358 434 c 0,33,34
 358 596 358 596 334 672 c 1,35,36
 262 672 262 672 208 502 c 0,37,38
 197 467 197 467 127 186 c 0,39,40
 85 17 85 17 48 17 c 0,41,42
 47 17 l 1,43,44
 -9 25 -9 25 -9 107 c 0,45,46
 -9 201 -9 201 37 359 c 0,47,48
 89 534 89 534 161 649 c 0,49,50
 248 787 248 787 338 787 c 0,51,52
 363 787 363 787 388 776 c 1,53,54
 441 717 441 717 449 591 c 1,55,56
 453 437 453 437 456 284 c 1,57,58
 506 446 506 446 584 591 c 0,59,60
 689 787 689 787 771 787 c 0,61,62
 871 787 871 787 871 517 c 0,0,1
EndSplineSet
Validated: 8388609
EndChar

StartChar: n
Encoding: 110 110 67
Width: 662
Flags: W
HStem: 821 20G<511 550.5>
VStem: 72 94<241.402 495.56> 528 100<192.401 593.906>
LayerCount: 2
Fore
SplineSet
628 331 m 0,0,1
 628 213 628 213 621 170 c 0,2,3
 603 50 603 50 542 50 c 0,4,5
 538 50 538 50 533 51 c 1,6,7
 455 60 455 60 326 245 c 1,8,9
 245 370 245 370 164 496 c 1,10,11
 166 457 166 457 166 413 c 0,12,13
 166 254 166 254 147 118 c 0,14,15
 127 -33 127 -33 96 -58 c 1,16,17
 75 -62 75 -62 61 -62 c 128,-1,18
 47 -62 47 -62 40 -58 c 1,19,20
 23 -58 23 -58 23 -4 c 256,21,22
 23 50 23 50 47.5 220 c 128,-1,23
 72 390 72 390 72 438 c 0,24,25
 72 502 72 502 45 586 c 128,-1,26
 18 670 18 670 18 676 c 0,27,28
 18 716 18 716 73 721 c 1,29,30
 74 721 74 721 76 721 c 0,31,32
 129 721 129 721 216 603 c 0,33,34
 252 555 252 555 375 361 c 0,35,36
 466 217 466 217 504 190 c 1,37,38
 525 202 525 202 529 254 c 1,39,40
 529 255 l 0,41,42
 528 255 528 255 528 346 c 0,43,44
 528 473 528 473 512 578 c 0,45,46
 505 624 505 624 484 691 c 0,47,48
 468 741 468 741 468 781 c 0,49,50
 468 800 468 800 483.5 820.5 c 128,-1,51
 499 841 499 841 523 841 c 0,52,53
 577 841 577 841 608 586 c 0,54,55
 628 423 628 423 628 331 c 0,0,1
EndSplineSet
Validated: 1
EndChar

StartChar: o
Encoding: 111 111 68
Width: 644
Flags: W
HStem: 17 90<190.765 361.875> 707 110<302.047 483.39>
VStem: 10 100<202.895 429.789> 550 100<364.275 641.806>
LayerCount: 2
Fore
SplineSet
650 497 m 0,0,1
 650 402 650 402 602 293 c 0,2,3
 550 175 550 175 465 102 c 0,4,5
 367 17 367 17 250 17 c 0,6,7
 130 17 130 17 63 119 c 0,8,9
 10 201 10 201 10 302 c 0,10,11
 10 386 10 386 47 496 c 1,12,13
 91 631 91 631 167 714 c 0,14,15
 260 817 260 817 385 817 c 0,16,17
 529 817 529 817 598 707 c 0,18,19
 650 623 650 623 650 497 c 0,0,1
550 487 m 0,20,21
 550 593 550 593 534 631 c 0,22,23
 500 707 500 707 385 707 c 0,24,25
 297 707 297 707 226 621 c 0,26,27
 169 551 169 551 135 442 c 0,28,29
 109 361 109 361 109 305 c 0,30,31
 109 296 109 296 110 287 c 0,32,33
 115 228 115 228 142 181 c 0,34,35
 185 107 185 107 270 107 c 0,36,37
 401 107 401 107 484 256 c 0,38,39
 550 374 550 374 550 487 c 0,20,21
EndSplineSet
Validated: 1
EndChar

StartChar: p
Encoding: 112 112 69
Width: 580
Flags: W
HStem: -51 21G<115.5 125> 761 101<165.387 281.618> 772 90<174.444 396.646>
VStem: 12 140<676.32 760.778> 93 98<-17.0752 248.232> 492 100<590.688 699.149>
LayerCount: 2
Fore
SplineSet
592 642 m 0,0,1
 592 640 592 640 592 639 c 0,2,3
 592 550 592 550 485 482 c 0,4,5
 415 438 415 438 283 397 c 0,6,7
 174 364 174 364 174 357 c 0,8,9
 173 343 173 343 173 327 c 0,10,11
 173 289 173 289 182 204 c 128,-1,12
 191 119 191 119 191 82 c 0,13,14
 191 -11 191 -11 149 -37 c 1,15,16
 129 -51 129 -51 121 -51 c 0,17,18
 110 -51 110 -51 93 -15 c 1,19,20
 93 148 93 148 69 325 c 1,21,22
 57 340 57 340 35 347 c 1,23,24
 22 350 22 350 22 382 c 0,25,26
 22 416 22 416 73 448 c 1,27,28
 73 453 73 453 73 458 c 0,29,30
 73 553 73 553 44 634 c 0,31,32
 12 722 12 722 12 761 c 0,33,34
 12 762 l 1,35,36
 12 803 12 803 39 823 c 0,37,38
 75 849 75 849 178 862 c 1,39,-1
 376 862 l 2,40,41
 453 862 453 862 522 794 c 128,-1,42
 591 726 591 726 592 642 c 0,0,1
492 637 m 0,43,44
 492 705 492 705 414 743 c 0,45,46
 353 772 353 772 282 772 c 0,47,48
 270 772 270 772 229 766.5 c 128,-1,49
 188 761 188 761 174 761 c 1,50,51
 172 754 172 754 160 734 c 0,52,53
 152 720 152 720 152 707 c 0,54,55
 152 702 152 702 163 601 c 128,-1,56
 174 500 174 500 174 454 c 1,57,58
 225 455 225 455 347 511 c 1,59,60
 492 576 492 576 492 637 c 0,43,44
EndSplineSet
Validated: 8388609
EndChar

StartChar: q
Encoding: 113 113 70
Width: 651
Flags: W
HStem: 603 100<449.371 505.905> 623 142<224 408.232> 633 132<294.075 429.103>
VStem: 21 100<209.33 470.428> 261 102<273.252 351.302> 359 99<-143.647 19.5625> 561 80<360.142 559.807>
LayerCount: 2
Fore
SplineSet
641 473 m 0,0,1
 641 254 641 254 443 96 c 1,2,3
 441 87 441 87 441 76 c 0,4,5
 441 56 441 56 449.5 8 c 128,-1,6
 458 -40 458 -40 458 -66 c 0,7,8
 458 -129 458 -129 417 -167 c 1,9,10
 411 -168 411 -168 405 -168 c 0,11,12
 370 -168 370 -168 359 -124 c 0,13,14
 357 -117 357 -117 349 -34 c 0,15,16
 344 22 344 22 324 40 c 1,17,18
 308 39 308 39 292 39 c 0,19,20
 127 39 127 39 65 127 c 0,21,22
 21 189 21 189 21 333 c 0,23,24
 21 461 21 461 87 580 c 0,25,26
 177 744 177 744 351 763 c 0,27,28
 367 765 367 765 380 765 c 0,29,30
 420 765 420 765 437 749 c 0,31,32
 445 741 445 741 451 719 c 0,33,34
 456 703 456 703 467 703 c 0,35,36
 471 703 471 703 478 705 c 0,37,38
 499 711 499 711 517 711 c 0,39,40
 585 711 585 711 617 630 c 0,41,42
 641 568 641 568 641 473 c 0,0,1
561 493 m 0,43,44
 561 541 561 541 496 623 c 1,45,46
 476 603 476 603 451 603 c 0,47,48
 439 603 439 603 419 618 c 128,-1,49
 399 633 399 633 386 633 c 0,50,51
 370 633 370 633 335.5 618 c 128,-1,52
 301 603 301 603 291 603 c 0,53,54
 279 603 279 603 274 613 c 128,-1,55
 269 623 269 623 256 623 c 0,56,57
 192 623 192 623 151 499 c 0,58,59
 121 406 121 406 121 338 c 0,60,61
 121 248 121 248 150 193 c 0,62,63
 187 123 187 123 266 123 c 0,64,65
 280 123 280 123 288.5 128.5 c 128,-1,66
 297 134 297 134 300 134 c 1,67,-1
 300 199 l 1,68,69
 300 200 l 0,70,71
 300 214 300 214 281 252 c 0,72,73
 261 292 261 292 261 303 c 256,74,75
 261 315 261 315 272 336 c 0,76,77
 287 363 287 363 306 363 c 0,78,79
 342 363 342 363 363 328 c 0,80,81
 376 306 376 306 390.5 253 c 128,-1,82
 405 200 405 200 415 183 c 1,83,84
 473 217 473 217 516 302 c 0,85,86
 561 392 561 392 561 493 c 0,43,44
EndSplineSet
Validated: 8388609
EndChar

StartChar: r
Encoding: 114 114 71
Width: 668
Flags: W
HStem: -52 21G<556 591.5> 698 100<217.642 447.941>
VStem: 15 138<241.5 649.647>
LayerCount: 2
Fore
SplineSet
665 578 m 4,0,1
 665 497 665 497 542 423 c 4,2,3
 433 357 433 357 315 341 c 5,4,5
 372 280 372 280 461.5 216.5 c 132,-1,6
 551 153 551 153 571 131 c 5,7,8
 615 86 615 86 615 28 c 4,9,10
 615 -42 615 -42 568 -52 c 5,11,12
 544 -45 544 -45 470 44 c 4,13,14
 371 162 371 162 325 205 c 4,15,16
 233 292 233 292 163 299 c 5,17,18
 153 284 153 284 153 255 c 4,19,20
 153 228 153 228 165.5 162 c 132,-1,21
 178 96 178 96 178 69 c 4,22,23
 178 33 178 33 162 19 c 5,24,25
 134 12 134 12 122 12 c 4,26,27
 106 12 106 12 97 19 c 5,28,29
 65 54 65 54 38 318 c 4,30,31
 15 534 15 534 15 633 c 4,32,33
 15 697 15 697 148 751 c 5,34,35
 256 796 256 796 325 798 c 4,36,37
 328 798 328 798 332 798 c 4,38,39
 438 798 438 798 544 738 c 4,40,41
 665 669 665 669 665 578 c 4,0,1
565 563 m 4,42,43
 550 637 550 637 457 673 c 4,44,45
 392 698 392 698 316 698 c 4,46,47
 313 698 313 698 310 698 c 4,48,49
 272 697 272 697 213 680 c 5,50,51
 145 659 145 659 125 634 c 5,52,53
 130 608 130 608 135 526 c 4,54,55
 139 457 139 457 150 425 c 5,56,57
 166 429 166 429 199 430 c 4,58,59
 206 430 206 430 215 430 c 4,60,61
 232 430 232 430 255 429 c 5,62,63
 293 428 293 428 295 428 c 4,64,65
 343 428 343 428 448 467 c 4,66,67
 566 512 566 512 566 557 c 4,68,69
 566 560 566 560 565 563 c 4,42,43
EndSplineSet
Validated: 1
EndChar

StartChar: s
Encoding: 115 115 72
Width: 669
Flags: W
HStem: -1 100<147.356 537.859> 12 137<52.5781 123.096> 514 58<389.165 462.378> 649 90<226.908 456.891>
VStem: 42 117<533.125 601.68> 465 110<582.992 637.892>
LayerCount: 2
Fore
SplineSet
685 177 m 4,0,1
 685 173 685 173 685 170 c 4,2,3
 685 62 685 62 539 21 c 5,4,5
 464 -1 464 -1 365 -1 c 4,6,7
 254 -1 254 -1 158 12 c 4,8,9
 -15 35 -15 35 -15 89 c 4,10,11
 -15 121 -15 121 -5.5 135 c 132,-1,12
 4 149 4 149 35 149 c 4,13,14
 48 149 48 149 133.5 124 c 132,-1,15
 219 99 219 99 231 99 c 6,16,-1
 469 99 l 6,17,18
 496 99 496 99 526 109 c 4,19,20
 576 126 576 126 585 164 c 5,21,22
 570 246 570 246 428 299 c 4,23,24
 301 347 301 347 175 394 c 5,25,26
 42 465 42 465 42 594 c 4,27,28
 42 615 42 615 45 638 c 5,29,30
 137 710 137 710 233 730 c 4,31,32
 278 739 278 739 390 739 c 4,33,34
 452 739 452 739 505 717 c 4,35,36
 575 687 575 687 575 629 c 4,37,38
 575 590 575 590 539.5 554.5 c 132,-1,39
 504 519 504 519 470 519 c 4,40,41
 464 519 464 519 449 516.5 c 132,-1,42
 434 514 434 514 426 514 c 4,43,44
 397 514 397 514 385 542 c 5,45,46
 392 562 392 562 418 572 c 4,47,48
 452 585 452 585 465 596 c 5,49,50
 465 597 465 597 465 599 c 4,51,52
 465 649 465 649 395 649 c 4,53,54
 205 649 205 649 159 580 c 5,55,56
 160 518 160 518 294 461 c 4,57,58
 420 408 420 408 545 355 c 5,59,60
 681 281 681 281 685 177 c 4,0,1
EndSplineSet
Validated: 8388609
EndChar

StartChar: t
Encoding: 116 116 73
Width: 705
Flags: W
HStem: 559 130<-39.5839 51> 670 94<206.96 316.357> 819 20G<644 674> 819 20G<644 674>
LayerCount: 2
Fore
SplineSet
756 781 m 1,0,1
 724 746 724 746 636 724 c 0,2,3
 586 712 586 712 489 699 c 0,4,5
 419 690 419 690 419 684 c 0,6,7
 401 527 401 527 390 315 c 0,8,9
 381 138 381 138 372 93 c 0,10,11
 358 19 358 19 317 19 c 0,12,13
 302 19 302 19 291.5 24.5 c 128,-1,14
 281 30 281 30 278 30 c 1,15,16
 264 61 264 61 264 86 c 0,17,18
 264 94 264 94 265.5 106 c 128,-1,19
 267 118 267 118 267 124 c 0,20,21
 267 137 267 137 292 335 c 128,-1,22
 317 533 317 533 317 545 c 2,23,-1
 317 670 l 1,24,25
 262 670 262 670 186 641 c 0,26,27
 140 624 140 624 70 588 c 0,28,29
 14 559 14 559 7 559 c 0,30,31
 -4 559 -4 559 -27.5 564.5 c 128,-1,32
 -51 570 -51 570 -61 570 c 1,33,34
 -73 592 -73 592 -73 637 c 1,35,36
 -58 657 -58 657 -30.5 673 c 128,-1,37
 -3 689 -3 689 17 689 c 0,38,39
 29 689 29 689 33.5 692 c 128,-1,40
 38 695 38 695 51 695 c 1,41,42
 135 728 l 0,43,44
 219 762 219 762 289 764 c 1,45,46
 343 772 343 772 475 802 c 0,47,48
 591 828 591 828 603 828 c 1,49,50
 626 839 626 839 662 839 c 0,51,52
 686 839 686 839 756 828 c 1,53,54
 760 816 760 816 760 804 c 128,-1,55
 760 792 760 792 756 781 c 1,0,1
EndSplineSet
Validated: 8388609
EndChar

StartChar: u
Encoding: 117 117 74
Width: 596
Flags: W
HStem: 89 87<198.277 316.371> 799 20G<500 539> 799 20G<500 539>
VStem: 15 123<386.227 649.523> 21 104<272.158 542.185> 489 92<476.092 735.407>
LayerCount: 2
Fore
SplineSet
581 644 m 0,0,1
 581 460 581 460 506 297 c 0,2,3
 411 89 411 89 239 89 c 0,4,5
 233 89 233 89 226 89 c 0,6,7
 118 94 118 94 63 215 c 0,8,9
 21 309 21 309 21 434 c 0,10,11
 21 441 21 441 18 479 c 128,-1,12
 15 517 15 517 15 543 c 0,13,14
 15 672 15 672 81 679 c 0,15,16
 85 679 85 679 89 679 c 0,17,18
 138 679 138 679 138 594 c 0,19,20
 138 567 138 567 131.5 495.5 c 128,-1,21
 125 424 125 424 125 385 c 0,22,23
 125 214 125 214 236 179 c 0,24,25
 248 176 248 176 260 176 c 0,26,27
 347 176 347 176 421 344 c 0,28,29
 489 498 489 498 489 638 c 0,30,31
 489 708 489 708 467 736 c 1,32,33
 465 746 465 746 465 754 c 0,34,35
 465 782 465 782 483 799 c 0,36,37
 485 801 485 801 515 819 c 1,38,39
 563 807 563 807 576 739 c 0,40,41
 581 714 581 714 581 644 c 0,0,1
EndSplineSet
Validated: 8388609
EndChar

StartChar: v
Encoding: 118 118 75
Width: 674
Flags: W
HStem: 835 20G<660.5 685>
LayerCount: 2
Fore
SplineSet
702 820 m 0,0,1
 702 810 702 810 593 527 c 0,2,3
 408 47 408 47 399 23 c 0,4,5
 387 -9 387 -9 355 -25 c 1,6,7
 334 -33 334 -33 313 -40 c 1,8,9
 308 -43 308 -43 303 -43 c 0,10,11
 256 -43 256 -43 170 142 c 1,12,13
 107 280 107 280 35 490 c 0,14,15
 -27 671 -27 671 -27 690 c 0,16,17
 -27 717 -27 717 -3 733 c 1,18,19
 13 741 13 741 28 750 c 1,20,21
 36 757 36 757 45 757 c 0,22,23
 78 757 78 757 120 621 c 1,24,25
 161 479 161 479 202 336 c 1,26,27
 256 158 256 158 308 90 c 1,28,29
 356 187 356 187 465 499 c 0,30,31
 551 748 551 748 628 848 c 1,32,33
 653 855 653 855 668 855 c 0,34,35
 702 855 702 855 702 820 c 0,0,1
EndSplineSet
Validated: 1
EndChar

StartChar: w
Encoding: 119 119 76
Width: 819
Flags: W
HStem: 873 20G<719.5 794.5>
VStem: 31 110<479.259 696.176> 38 103<585.743 703.151> 47 79<145.25 531.562> 49 92<287.563 583.803> 372 109<580.896 670.008>
LayerCount: 2
Fore
SplineSet
811 774 m 4,0,1
 811 733 811 733 785 576 c 4,2,3
 751 371 751 371 707 241 c 4,4,5
 646 64 646 64 576 64 c 4,6,7
 531 64 531 64 499 121 c 4,8,9
 480 155 480 155 452 247 c 132,-1,10
 424 339 424 339 406 374 c 5,11,12
 398 363 398 363 359 250 c 5,13,14
 317 132 317 132 279 69 c 4,15,16
 222 -26 222 -26 156 -36 c 4,17,18
 151 -37 151 -37 146 -37 c 4,19,20
 47 -37 47 -37 47 283 c 4,21,22
 47 327 47 327 49 398 c 4,23,24
 51 462 51 462 51 479 c 4,25,26
 51 487 51 487 41 532.5 c 132,-1,27
 31 578 31 578 31 584 c 4,28,29
 31 640 31 640 38 666 c 4,30,31
 51 714 51 714 91 714 c 4,32,33
 141 714 141 714 141 630 c 6,34,-1
 141 378 l 6,35,36
 141 346 141 346 133.5 325.5 c 132,-1,37
 126 305 126 305 126 287 c 4,38,39
 126 241 126 241 158 94 c 5,40,41
 236 142 236 142 280 261 c 4,42,43
 310 340 310 340 334 486 c 4,44,45
 361 645 361 645 372 682 c 5,46,47
 390 700 390 700 416 704 c 4,48,49
 419 704 419 704 421 704 c 4,50,51
 460 704 460 704 481 598 c 5,52,53
 497 482 497 482 513 366 c 5,54,55
 536 224 536 224 576 184 c 5,56,57
 646 293 646 293 674 475 c 4,58,59
 683 537 683 537 698 753 c 5,60,61
 706 883 706 883 733 893 c 5,62,-1
 778 893 l 5,63,64
 811 859 811 859 811 774 c 4,0,1
EndSplineSet
Validated: 8388609
EndChar

StartChar: x
Encoding: 120 120 77
Width: 644
Flags: W
HStem: 763 20G<81 111>
LayerCount: 2
Fore
SplineSet
671 676 m 5,0,1
 545 549 545 549 392 426 c 5,2,3
 437 315 437 315 520 186 c 4,4,5
 582 89 582 89 582 58 c 4,6,7
 582 32 582 32 565 17.5 c 132,-1,8
 548 3 548 3 522 3 c 4,9,10
 495 3 495 3 446 85 c 4,11,12
 422 126 422 126 366 238 c 4,13,14
 325 321 325 321 317 323 c 4,15,16
 313 324 313 324 309 324 c 4,17,18
 269 324 269 324 222 258 c 5,19,20
 179 189 179 189 136 119 c 5,21,22
 86 43 86 43 52 43 c 4,23,24
 16 43 16 43 2 63 c 4,25,26
 -9 79 -9 79 -9 97 c 4,27,28
 -9 102 -9 102 -8 108 c 4,29,30
 -2 149 -2 149 68 232 c 4,31,32
 114 286 114 286 195 365 c 4,33,34
 262 430 262 430 262 433 c 4,35,36
 262 446 262 446 171 557 c 4,37,38
 74 675 74 675 33 694 c 5,39,40
 24 711 24 711 24 729 c 4,41,42
 24 746 24 746 33 762 c 5,43,44
 75 783 75 783 87 783 c 4,45,46
 135 783 135 783 225 666 c 5,47,48
 281 584 281 584 337 503 c 5,49,-1
 585 742 l 6,50,51
 604 760 604 760 626 760 c 4,52,53
 650 760 650 760 671 742 c 5,54,55
 676 722 676 722 676 705 c 132,-1,56
 676 688 676 688 671 676 c 5,0,1
EndSplineSet
Validated: 1
EndChar

StartChar: y
Encoding: 121 121 78
Width: 595
Flags: W
VStem: 480 139<677.114 784.481>
LayerCount: 2
Fore
SplineSet
607 711 m 1,0,1
 607 668 607 668 403 310 c 0,2,3
 196 -55 196 -55 152 -63 c 0,4,5
 148 -64 148 -64 144 -64 c 0,6,7
 116 -64 116 -64 107 -23 c 0,8,9
 106 -15 106 -15 106 -7 c 0,10,11
 106 33 106 33 147 93 c 0,12,13
 149 95 149 95 225 191 c 0,14,15
 267 244 267 244 267 267 c 0,16,17
 267 279 267 279 239 315 c 0,18,19
 200 363 200 363 190 379 c 0,20,21
 -23 739 -23 739 -23 798 c 0,22,23
 -23 800 -23 800 -23 802 c 0,24,25
 -20 819 -20 819 -7 839 c 1,26,27
 12 865 12 865 37 867 c 0,28,29
 38 867 38 867 39 867 c 0,30,31
 79 867 79 867 111 799 c 1,32,33
 148 705 148 705 186 611 c 0,34,35
 246 464 246 464 322 346 c 1,36,37
 370 403 370 403 413 537 c 1,38,39
 447 639 447 639 480 740 c 1,40,41
 515 827 515 827 557 827 c 0,42,43
 560 827 560 827 562 827 c 0,44,45
 576 825 576 825 589 820 c 128,-1,46
 602 815 602 815 607 815 c 1,47,48
 619 793 619 793 619 767 c 256,49,50
 619 741 619 741 607 711 c 1,0,1
EndSplineSet
Validated: 1
EndChar

StartChar: z
Encoding: 122 122 79
Width: 683
Flags: W
HStem: 46 86<150.742 411.786> 716 90<342.719 548.477>
LayerCount: 2
Fore
SplineSet
680 126 m 0,0,1
 671 49 671 49 175 46 c 0,2,3
 133 46 133 46 83 69 c 0,4,5
 21 98 21 98 20 141 c 1,6,7
 20 142 l 0,8,9
 20 178 20 178 157 302 c 1,10,11
 286 416 286 416 415 530 c 1,12,13
 550 654 550 654 550 690 c 0,14,15
 550 691 l 1,16,17
 539 716 539 716 490 716 c 0,18,19
 306 716 306 716 56 577 c 1,20,21
 35 569 35 569 14 569 c 0,22,23
 -5 569 -5 569 -19 577 c 1,24,25
 -19 581 -19 581 -24.5 589 c 128,-1,26
 -30 597 -30 597 -30 611 c 0,27,28
 -30 691 -30 691 209 754 c 0,29,30
 405 806 405 806 549 806 c 0,31,32
 554 806 554 806 560 806 c 0,33,34
 594 806 594 806 659 765 c 1,35,36
 662 752 662 752 662 738 c 0,37,38
 662 654 662 654 559 541 c 0,39,40
 491 465 491 465 341 342 c 0,41,42
 177 208 177 208 139 170 c 1,43,44
 158 136 158 136 180 136 c 1,45,46
 196 132 196 132 223 132 c 0,47,48
 277 132 277 132 425.5 155.5 c 128,-1,49
 574 179 574 179 620 179 c 0,50,51
 645 179 645 179 658 175 c 1,52,53
 658 176 658 176 670 160 c 0,54,55
 680 146 680 146 680 132 c 0,56,57
 680 131 680 131 680 129 c 128,-1,58
 680 127 680 127 680 126 c 0,0,1
EndSplineSet
Validated: 1
EndChar

StartChar: quotedblleft
Encoding: 8220 8220 80
Width: 403
Flags: W
HStem: 830 20G<235.5 298>
VStem: 10 128<688.148 761.698> 210 180<765 850>
LayerCount: 2
Fore
SplineSet
390 582 m 5,0,1
 390 554 390 554 386 544 c 4,2,3
 375 511 375 511 332 507 c 5,4,5
 330 509 330 509 272 631 c 4,6,7
 210 763 210 763 210 799 c 4,8,9
 210 800 l 4,10,11
 211 850 211 850 260 850 c 4,12,13
 336 850 336 850 390 582 c 5,0,1
184 563 m 5,14,15
 186 558 186 558 186 553 c 4,16,17
 186 538 186 538 156 507 c 5,18,19
 109 523 109 523 55 636 c 4,20,21
 10 731 10 731 10 752 c 4,22,23
 10 788 10 788 29 796 c 5,24,25
 47 801 47 801 65 807 c 5,26,27
 70 811 70 811 76 810 c 5,28,29
 105 810 105 810 138 703 c 4,30,31
 179 570 179 570 184 563 c 5,14,15
EndSplineSet
Validated: 1
EndChar

StartChar: quotedblright
Encoding: 8221 8221 81
Width: 469
Flags: W
HStem: 863 28G<157 194 400.5 412.5>
LayerCount: 2
Fore
SplineSet
453 826 m 0,0,1
 453 783 453 783 362.5 669.5 c 128,-1,2
 272 556 272 556 236 551 c 1,3,4
 213 570 213 570 213 596 c 0,5,6
 213 629 213 629 286 749 c 128,-1,7
 359 869 359 869 393 881 c 0,8,9
 398 883 398 883 403 883 c 0,10,11
 422 883 422 883 439 859 c 0,12,13
 453 839 453 839 453 826 c 0,0,1
233 846 m 1,14,15
 183 763 183 763 153 686 c 0,16,17
 126 614 126 614 118 603 c 0,18,19
 99 574 99 574 47 551 c 1,20,21
 24 572 24 572 22 574 c 0,22,23
 13 584 13 584 13 601 c 0,24,25
 13 624 13 624 71 749 c 0,26,27
 136 891 136 891 178 891 c 0,28,29
 210 891 210 891 216 884 c 1,30,31
 225 865 225 865 233 846 c 1,14,15
EndSplineSet
Validated: 1
EndChar

StartChar: fraction
Encoding: 8260 8260 82
Width: 480
Flags: W
HStem: 786 20G<422 444.5> 786 20G<422 444.5>
LayerCount: 2
Fore
SplineSet
457 731 m 4,0,1
 457 719 457 719 365 536 c 4,2,3
 256 319 256 319 183 195 c 4,4,5
 80 20 80 20 52 20 c 4,6,7
 51 20 51 20 50 20 c 5,8,9
 -5 21 -5 21 -5 47 c 4,10,11
 -5 58 -5 58 6 74 c 4,12,13
 94 215 94 215 190 415 c 5,14,15
 254 551 254 551 318 687 c 5,16,17
 375 799 375 799 407 804 c 4,18,19
 418 806 418 806 426 806 c 4,20,21
 463 806 463 806 463 771 c 4,22,23
 463 761 463 761 460 746.5 c 132,-1,24
 457 732 457 732 457 731 c 4,0,1
EndSplineSet
Validated: 8388609
EndChar

StartChar: copyright
Encoding: 169 169 84
Width: 1000
VWidth: 0
Flags: W
HStem: 702.048 87.955<405.036 630.702>
VStem: 610 69<395.391 474.318>
LayerCount: 2
Back
Fore
SplineSet
689 476 m 0,0,1
 684 447 684 447 679 410 c 0,2,3
 677 398 677 398 654 391 c 16,4,5
 647 389 647 389 642 389 c 0,6,7
 631 389 631 389 624 395 c 0,8,9
 610 407 610 407 610 423 c 0,10,11
 610 426 l 0,12,13
 611 437 611 437 611 442 c 0,14,15
 610 462 610 462 605 475 c 0,16,17
 599 490 599 490 582 490 c 0,18,19
 581 490 l 0,20,21
 555 490 555 490 534 490 c 128,-1,22
 513 490 513 490 496 490 c 8,23,24
 453 490 453 490 408 432 c 24,25,26
 374 388 374 388 359 314 c 16,27,28
 354 289 354 289 354 266 c 0,29,30
 354 230 354 230 366 200 c 8,31,32
 389 143 389 143 434 123 c 16,33,34
 450 116 450 116 497 116 c 0,35,36
 523 116 523 116 557 118 c 8,37,38
 602 121 602 121 633 135 c 24,39,-1
 680 176 l 16,40,41
 695 181 695 181 708 181 c 0,42,43
 723 181 723 181 734 173 c 0,44,45
 746 164 746 164 746 148 c 0,46,47
 745 137 745 137 740 120 c 8,48,49
 730 85 730 85 698 65 c 24,50,51
 651 36 651 36 591 27 c 16,52,53
 564 23 564 23 532 23 c 0,54,55
 501 23 501 23 464 27 c 8,56,57
 413 33 413 33 373 53 c 24,58,59
 335 73 335 73 309 106 c 24,60,61
 280 143 280 143 271 186 c 16,62,63
 269 195 269 195 269 220 c 0,64,65
 269 244 269 244 271 282 c 8,66,67
 274 336 274 336 279 356 c 24,68,69
 288 393 288 393 309 433 c 24,70,71
 334 481 334 481 356 505 c 24,72,73
 385 536 385 536 424 557 c 24,74,75
 451 571 451 571 489 576 c 16,76,77
 520 580 520 580 545 580 c 0,78,79
 562 580 562 580 576 578 c 8,80,81
 645 568 645 568 659 553 c 0,82,83
 689 520 689 520 689 485 c 0,84,85
 689 481 689 481 689 476 c 0,0,1
492 702 m 0,86,87
 422 696 422 696 376 667 c 24,88,89
 345 649 345 649 300 616 c 0,90,91
 245 576 245 576 178 470 c 0,92,93
 121 381 121 381 100 310 c 16,94,95
 94 290 94 290 94 265 c 0,96,97
 94 234 94 234 104 196 c 8,98,99
 127 107 127 107 164 56 c 24,100,101
 218 -19 218 -19 286 -58 c 24,102,103
 332 -84 332 -84 437 -100 c 0,104,105
 459 -103 459 -103 480 -103 c 0,106,-1
 491 -103 l 0,107,108
 553 -103 553 -103 616 -84 c 0,109,110
 715 -54 715 -54 764 -8 c 0,111,112
 821 44 821 44 860 118 c 24,113,114
 904 201 904 201 910 268 c 16,115,116
 913 303 913 303 913 334 c 0,117,118
 913 423 913 423 890 486 c 8,119,120
 871 539 871 539 788 603 c 0,121,122
 727 650 727 650 614 686 c 16,123,124
 558 704 558 704 515 704 c 0,125,126
 503 703 503 703 492 702 c 0,86,87
577 790 m 0,127,128
 705 781 705 781 768 750 c 24,129,130
 841 714 841 714 907 627 c 24,131,132
 972 541 972 541 986 462 c 16,133,134
 998 393 998 393 998 332 c 0,135,136
 998 263 998 263 982 206 c 0,137,138
 956 112 956 112 890 10 c 24,139,140
 842 -64 842 -64 780 -108 c 24,141,142
 695 -169 695 -169 620 -180 c 16,143,144
 553 -190 553 -190 489 -190 c 0,145,146
 406 -190 406 -190 330 -173 c 0,147,148
 255 -156 255 -156 176 -94 c 24,149,150
 120 -50 120 -50 78 26 c 24,151,152
 26 121 26 121 18 190 c 16,153,154
 13 236 13 236 13 275 c 0,155,156
 13 357 13 357 36 404 c 0,157,158
 73 480 73 480 108 539 c 0,159,160
 142 596 142 596 213 653 c 0,161,162
 297 721 297 721 336 740 c 0,163,164
 399 771 399 771 466 784 c 16,165,166
 502 791 502 791 548 791 c 0,167,168
 562 791 562 791 577 790 c 0,127,128
EndSplineSet
Validated: 1
EndChar

StartChar: uni2E2E
Encoding: 11822 11822 85
Width: 588
Flags: W
HStem: 30 131<91.8369 181.137> 744 76<247.657 405.738>
VStem: 479 110<603.421 692.346>
LayerCount: 2
Fore
SplineSet
-29 630 m 0,0,1
 -29 696 -29 696 53 750 c 0,2,3
 125 797 125 797 186 800 c 0,4,5
 201 801 201 801 217 801 c 0,6,7
 311 801 311 801 421 775 c 0,8,9
 591 735 591 735 591 660 c 0,10,11
 591 639 591 639 590 637 c 0,12,13
 580 617 580 617 545 613 c 0,14,15
 544 613 544 613 542 613 c 0,16,17
 514 613 514 613 398 666 c 0,18,19
 270 724 270 724 236 724 c 1,20,21
 81 697 81 697 81 625 c 0,22,23
 81 577 81 577 187 532 c 0,24,25
 286 490 286 490 385 448 c 1,26,27
 491 392 491 392 491 325 c 0,28,29
 491 313 491 313 486 293 c 0,30,31
 480 274 480 274 480 271 c 1,32,-1
 434 271 l 1,33,34
 421 279 421 279 407 286 c 1,35,36
 371 314 371 314 324 377 c 1,37,38
 269 400 269 400 214 423 c 1,39,40
 108 470 108 470 53 511 c 0,41,42
 -29 572 -29 572 -29 630 c 0,0,1
362 41 m 1,43,-1
 354 111 l 1,44,45
 386 141 386 141 434 141 c 0,46,47
 451 141 451 141 471 116 c 128,-1,48
 491 91 491 91 491 60 c 0,49,50
 491 42 491 42 479 26 c 128,-1,51
 467 10 467 10 451 10 c 0,52,53
 412 10 412 10 362 41 c 1,43,-1
EndSplineSet
Validated: 1
EndChar

StartChar: questiondown
Encoding: 191 191 86
Width: 588
Flags: W
HStem: 30 131<91.8369 181.137> 744 76<247.657 405.738>
VStem: 479 110<603.421 692.346>
LayerCount: 2
Fore
SplineSet
604 204 m 0,0,1
 604 138 604 138 522 84 c 0,2,3
 453 38 453 38 389 34 c 0,4,5
 374 33 374 33 358 33 c 0,6,7
 256 35 256 35 154 59 c 0,8,9
 -16 99 -16 99 -16 174 c 0,10,11
 -16 195 -16 195 -15 197 c 0,12,13
 -2 221 -2 221 30 221 c 0,14,15
 31 221 31 221 33 221 c 0,16,17
 34 221 34 221 35 221 c 0,18,19
 60 221 60 221 177 168 c 0,20,21
 306 110 306 110 339 110 c 1,22,23
 494 137 494 137 494 209 c 0,24,25
 494 257 494 257 388 302 c 0,26,27
 289 344 289 344 190 386 c 1,28,29
 84 442 84 442 84 509 c 0,30,31
 84 521 84 521 90 540 c 0,32,33
 95 556 95 556 95 563 c 1,34,-1
 141 563 l 1,35,36
 154 555 154 555 168 548 c 1,37,38
 204 520 204 520 251 457 c 1,39,40
 306 434 306 434 361 411 c 1,41,42
 467 364 467 364 522 323 c 0,43,44
 604 262 604 262 604 204 c 0,0,1
213 793 m 1,45,-1
 221 723 l 1,46,47
 189 693 189 693 141 693 c 0,48,49
 124 693 124 693 104 718 c 128,-1,50
 84 743 84 743 84 774 c 0,51,52
 84 792 84 792 96 808 c 128,-1,53
 108 824 108 824 124 824 c 0,54,55
 163 824 163 824 213 793 c 1,45,-1
EndSplineSet
Validated: 1
EndChar

StartChar: questionarabic
Encoding: 1567 1567 87
Width: 588
Flags: W
HStem: 30 131<91.8369 181.137> 744 76<247.657 405.738>
VStem: 479 110<603.421 692.346>
LayerCount: 2
Fore
SplineSet
-16 651 m 4,0,1
 -16 717 -16 717 66 771 c 4,2,3
 138 818 138 818 199 821 c 4,4,5
 214 822 214 822 230 822 c 4,6,7
 324 822 324 822 434 796 c 4,8,9
 604 756 604 756 604 681 c 4,10,11
 604 660 604 660 603 658 c 4,12,13
 593 638 593 638 558 634 c 4,14,15
 557 634 557 634 555 634 c 4,16,17
 527 634 527 634 411 687 c 4,18,19
 283 745 283 745 249 745 c 5,20,21
 94 718 94 718 94 646 c 4,22,23
 94 598 94 598 200 553 c 4,24,25
 299 511 299 511 398 469 c 5,26,27
 504 413 504 413 504 346 c 4,28,29
 504 334 504 334 498 314 c 4,30,31
 493 297 493 297 493 292 c 5,32,-1
 447 292 l 5,33,34
 434 300 434 300 420 307 c 5,35,36
 384 335 384 335 337 398 c 5,37,38
 282 421 282 421 227 444 c 5,39,40
 124 488 124 488 66 532 c 4,41,42
 -16 594 -16 594 -16 651 c 4,0,1
375 62 m 5,43,-1
 367 132 l 5,44,45
 399 162 399 162 447 162 c 4,46,47
 464 162 464 162 484 137 c 132,-1,48
 504 112 504 112 504 81 c 4,49,50
 504 63 504 63 492 47 c 132,-1,51
 480 31 480 31 464 31 c 4,52,53
 425 31 425 31 375 62 c 5,43,-1
EndSplineSet
Validated: 1
EndChar
